<svg width="35" height="35" viewBox="0 0 35 35" fill="none" xmlns="http://www.w3.org/2000/svg">
<g id="Bell" clip-path="url(#clip0_5_2660)">
<path id="Vector" d="M17.5 35C18.6603 35 19.7731 34.5391 20.5936 33.7186C21.4141 32.8981 21.875 31.7853 21.875 30.625H13.125C13.125 31.7853 13.5859 32.8981 14.4064 33.7186C15.2269 34.5391 16.3397 35 17.5 35ZM17.5 4.19565L15.7566 4.54783C13.779 4.95077 12.0013 6.02462 10.7246 7.58763C9.44775 9.15064 8.75022 11.1068 8.75 13.125C8.75 14.4988 8.45687 17.931 7.74594 21.3106C7.39594 22.9885 6.92344 24.7363 6.29563 26.25H28.7044C28.0766 24.7363 27.6062 22.9906 27.2541 21.3106C26.5431 17.931 26.25 14.4988 26.25 13.125C26.2493 11.1072 25.5515 9.15153 24.2748 7.58897C22.998 6.02641 21.2207 4.95288 19.2434 4.55002L17.5 4.19346V4.19565ZM31.1063 26.25C31.5941 27.2278 32.1584 28.0022 32.8125 28.4375H2.1875C2.84156 28.0022 3.40594 27.2278 3.89375 26.25C5.8625 22.3125 6.5625 15.05 6.5625 13.125C6.5625 7.83127 10.325 3.41252 15.3234 2.40408C15.2929 2.09992 15.3265 1.79273 15.4219 1.50234C15.5174 1.21194 15.6727 0.94478 15.8778 0.718086C16.0829 0.491392 16.3332 0.310197 16.6126 0.186188C16.892 0.0621786 17.1943 -0.00189209 17.5 -0.00189209C17.8057 -0.00189209 18.108 0.0621786 18.3874 0.186188C18.6668 0.310197 18.9171 0.491392 19.1222 0.718086C19.3273 0.94478 19.4826 1.21194 19.5781 1.50234C19.6735 1.79273 19.7071 2.09992 19.6766 2.40408C22.1491 2.90699 24.3718 4.24893 25.9683 6.20268C27.5649 8.15642 28.4372 10.6019 28.4375 13.125C28.4375 15.05 29.1375 22.3125 31.1063 26.25Z" fill="black"/>
<circle id="Ellipse 23" cx="27.3" cy="9.10001" r="4.9" fill="#E44A77"/>
</g>
<defs>
<clipPath id="clip0_5_2660">
<rect width="35" height="35" fill="white"/>
</clipPath>
</defs>
</svg>
