<svg width="35" height="35" viewBox="0 0 35 35" fill="none" xmlns="http://www.w3.org/2000/svg">
<g id="Envelope">
<path id="Vector" d="M0 8.75C0 7.58968 0.460936 6.47688 1.28141 5.65641C2.10188 4.83594 3.21468 4.375 4.375 4.375H30.625C31.7853 4.375 32.8981 4.83594 33.7186 5.65641C34.5391 6.47688 35 7.58968 35 8.75V26.25C35 27.4103 34.5391 28.5231 33.7186 29.3436C32.8981 30.1641 31.7853 30.625 30.625 30.625H4.375C3.21468 30.625 2.10188 30.1641 1.28141 29.3436C0.460936 28.5231 0 27.4103 0 26.25V8.75ZM4.375 6.5625C3.79484 6.5625 3.23844 6.79297 2.8282 7.2032C2.41797 7.61344 2.1875 8.16984 2.1875 8.75V9.22469L17.5 18.4122L32.8125 9.22469V8.75C32.8125 8.16984 32.582 7.61344 32.1718 7.2032C31.7616 6.79297 31.2052 6.5625 30.625 6.5625H4.375ZM32.8125 11.7753L22.4044 18.0206L32.8125 24.3119V11.7775V11.7753ZM32.7381 26.8209L20.2803 19.2937L17.5 20.9628L14.7175 19.2937L2.26188 26.8188C2.387 27.2834 2.66186 27.6939 3.04388 27.9865C3.4259 28.2792 3.89377 28.4377 4.375 28.4375H30.625C31.1059 28.4378 31.5736 28.2796 31.9556 27.9874C32.3376 27.6952 32.6126 27.2852 32.7381 26.8209ZM2.1875 24.3119L12.5956 18.0206L2.1875 11.7753V24.3097V24.3119Z" fill="black"/>
</g>
</svg>
