<svg width="169" height="35" viewBox="0 0 169 35" fill="none" xmlns="http://www.w3.org/2000/svg">
<path d="M0 8.75C0 7.58968 0.460936 6.47688 1.28141 5.65641C2.10188 4.83594 3.21468 4.375 4.375 4.375H30.625C31.7853 4.375 32.8981 4.83594 33.7186 5.65641C34.5391 6.47688 35 7.58968 35 8.75V26.25C35 27.4103 34.5391 28.5231 33.7186 29.3436C32.8981 30.1641 31.7853 30.625 30.625 30.625H4.375C3.21468 30.625 2.10188 30.1641 1.28141 29.3436C0.460936 28.5231 0 27.4103 0 26.25V8.75ZM4.375 6.5625C3.79484 6.5625 3.23844 6.79297 2.8282 7.2032C2.41797 7.61344 2.1875 8.16984 2.1875 8.75V9.22469L17.5 18.4122L32.8125 9.22469V8.75C32.8125 8.16984 32.582 7.61344 32.1718 7.2032C31.7616 6.79297 31.2052 6.5625 30.625 6.5625H4.375ZM32.8125 11.7753L22.4044 18.0206L32.8125 24.3119V11.7775V11.7753ZM32.7381 26.8209L20.2803 19.2937L17.5 20.9628L14.7175 19.2937L2.26188 26.8188C2.387 27.2834 2.66186 27.6939 3.04388 27.9865C3.4259 28.2792 3.89377 28.4377 4.375 28.4375H30.625C31.1059 28.4378 31.5736 28.2796 31.9556 27.9874C32.3376 27.6952 32.6126 27.2852 32.7381 26.8209ZM2.1875 24.3119L12.5956 18.0206L2.1875 11.7753V24.3097V24.3119Z" fill="black"/>
<g clip-path="url(#clip0_5_2657)">
<path d="M84.5 35C85.6603 35 86.7731 34.5391 87.5936 33.7186C88.4141 32.8981 88.875 31.7853 88.875 30.625H80.125C80.125 31.7853 80.5859 32.8981 81.4064 33.7186C82.2269 34.5391 83.3397 35 84.5 35ZM84.5 4.19565L82.7566 4.54783C80.779 4.95077 79.0013 6.02462 77.7246 7.58763C76.4478 9.15064 75.7502 11.1068 75.75 13.125C75.75 14.4988 75.4569 17.931 74.7459 21.3106C74.3959 22.9885 73.9234 24.7363 73.2956 26.25H95.7044C95.0766 24.7363 94.6062 22.9906 94.2541 21.3106C93.5431 17.931 93.25 14.4988 93.25 13.125C93.2493 11.1072 92.5515 9.15153 91.2748 7.58897C89.998 6.02641 88.2207 4.95288 86.2434 4.55002L84.5 4.19346V4.19565ZM98.1063 26.25C98.5941 27.2278 99.1584 28.0022 99.8125 28.4375H69.1875C69.8416 28.0022 70.4059 27.2278 70.8937 26.25C72.8625 22.3125 73.5625 15.05 73.5625 13.125C73.5625 7.83127 77.325 3.41252 82.3234 2.40408C82.2929 2.09992 82.3265 1.79273 82.4219 1.50234C82.5174 1.21194 82.6727 0.94478 82.8778 0.718086C83.0829 0.491392 83.3332 0.310197 83.6126 0.186188C83.892 0.0621786 84.1943 -0.00189209 84.5 -0.00189209C84.8057 -0.00189209 85.108 0.0621786 85.3874 0.186188C85.6668 0.310197 85.9171 0.491392 86.1222 0.718086C86.3273 0.94478 86.4826 1.21194 86.5781 1.50234C86.6735 1.79273 86.7071 2.09992 86.6766 2.40408C89.1491 2.90699 91.3718 4.24893 92.9683 6.20268C94.5649 8.15642 95.4372 10.6019 95.4375 13.125C95.4375 15.05 96.1375 22.3125 98.1063 26.25Z" fill="black"/>
<circle cx="94.3" cy="9.10001" r="4.9" fill="#E44A77"/>
</g>
<path d="M151.5 32.8125C147.439 32.8125 143.544 31.1992 140.672 28.3276C137.801 25.4559 136.188 21.5611 136.188 17.5C136.188 13.4389 137.801 9.54408 140.672 6.67243C143.544 3.80078 147.439 2.1875 151.5 2.1875C155.561 2.1875 159.456 3.80078 162.328 6.67243C165.199 9.54408 166.812 13.4389 166.812 17.5C166.812 21.5611 165.199 25.4559 162.328 28.3276C159.456 31.1992 155.561 32.8125 151.5 32.8125ZM151.5 35C156.141 35 160.592 33.1563 163.874 29.8744C167.156 26.5925 169 22.1413 169 17.5C169 12.8587 167.156 8.40752 163.874 5.12563C160.592 1.84374 156.141 0 151.5 0C146.859 0 142.408 1.84374 139.126 5.12563C135.844 8.40752 134 12.8587 134 17.5C134 22.1413 135.844 26.5925 139.126 29.8744C142.408 33.1563 146.859 35 151.5 35Z" fill="black"/>
<path d="M145.495 12.6569C145.492 12.7275 145.504 12.798 145.529 12.8641C145.554 12.9301 145.593 12.9903 145.642 13.0409C145.691 13.0915 145.751 13.1315 145.816 13.1583C145.881 13.1852 145.952 13.1984 146.022 13.1972H147.827C148.129 13.1972 148.369 12.95 148.409 12.6503C148.606 11.2153 149.59 10.1697 151.344 10.1697C152.845 10.1697 154.219 10.92 154.219 12.7247C154.219 14.1137 153.401 14.7525 152.108 15.7238C150.636 16.7934 149.47 18.0425 149.553 20.0703L149.559 20.545C149.562 20.6885 149.62 20.8254 149.723 20.9261C149.825 21.0267 149.963 21.0831 150.106 21.0831H151.88C152.025 21.0831 152.165 21.0255 152.267 20.9229C152.37 20.8204 152.427 20.6813 152.427 20.5362V20.3066C152.427 18.7359 153.024 18.2787 154.637 17.0559C155.969 16.0431 157.358 14.9188 157.358 12.5584C157.358 9.25313 154.567 7.65625 151.511 7.65625C148.739 7.65625 145.703 8.94687 145.495 12.6569ZM148.901 25.2634C148.901 26.4294 149.831 27.2913 151.11 27.2913C152.443 27.2913 153.359 26.4294 153.359 25.2634C153.359 24.0559 152.44 23.2072 151.108 23.2072C149.831 23.2072 148.901 24.0559 148.901 25.2634Z" fill="black"/>
<defs>
<clipPath id="clip0_5_2657">
<rect width="35" height="35" fill="white" transform="translate(67)"/>
</clipPath>
</defs>
</svg>
