<svg width="470" height="71" viewBox="0 0 470 71" fill="none" xmlns="http://www.w3.org/2000/svg">
<path d="M0 0H469.5C469.5 0 450.283 6.5 450.283 17C450.283 23.4554 450.283 42.384 450.283 56.0089C450.283 64.2931 443.567 71 435.283 71H35.7447C27.4604 71 20.7447 64.2943 20.7447 56.0101C20.7447 42.6047 20.7447 24.0225 20.7447 17C20.7447 5.5 0 0 0 0Z" fill="#00AAFF"/>
<rect x="41.4894" y="14.2" width="388.049" height="42.6" rx="5" fill="white"/>
<path opacity="0.5" d="M212.376 42V30.72H221.896V42H220.424V31.968H213.848V42H212.376ZM227.954 42.144C227.164 42.144 226.482 41.9787 225.906 41.648C225.33 41.3067 224.882 40.8267 224.562 40.208C224.242 39.5787 224.082 38.832 224.082 37.968C224.082 37.1147 224.242 36.3787 224.562 35.76C224.882 35.1307 225.33 34.6507 225.906 34.32C226.482 33.9787 227.164 33.808 227.954 33.808C228.743 33.808 229.426 33.9787 230.002 34.32C230.588 34.6507 231.036 35.1307 231.346 35.76C231.666 36.3787 231.826 37.1147 231.826 37.968C231.826 38.832 231.666 39.5787 231.346 40.208C231.036 40.8267 230.588 41.3067 230.002 41.648C229.426 41.9787 228.743 42.144 227.954 42.144ZM227.954 40.992C228.679 40.992 229.26 40.736 229.698 40.224C230.135 39.712 230.354 38.96 230.354 37.968C230.354 36.976 230.135 36.2293 229.698 35.728C229.26 35.2267 228.679 34.976 227.954 34.976C227.218 34.976 226.631 35.2267 226.194 35.728C225.767 36.2293 225.554 36.976 225.554 37.968C225.554 38.96 225.767 39.712 226.194 40.224C226.631 40.736 227.218 40.992 227.954 40.992ZM233.904 42V33.952H235.232V40.624H234.8L239.792 33.952H241.008V42H239.68V35.312H240.128L235.12 42H233.904ZM247.002 42.144C246.202 42.144 245.509 41.9787 244.922 41.648C244.335 41.3067 243.877 40.8213 243.546 40.192C243.226 39.552 243.066 38.7947 243.066 37.92C243.066 37.056 243.231 36.32 243.562 35.712C243.893 35.0933 244.351 34.624 244.938 34.304C245.525 33.9733 246.213 33.808 247.002 33.808C247.525 33.808 248.031 33.8987 248.522 34.08C249.013 34.2507 249.413 34.5013 249.722 34.832L249.226 35.856C248.917 35.5573 248.575 35.3387 248.202 35.2C247.829 35.0507 247.461 34.976 247.098 34.976C246.309 34.976 245.69 35.232 245.242 35.744C244.794 36.2453 244.57 36.976 244.57 37.936C244.57 38.9067 244.794 39.6533 245.242 40.176C245.69 40.6987 246.309 40.96 247.098 40.96C247.45 40.96 247.813 40.8907 248.186 40.752C248.559 40.6133 248.906 40.3947 249.226 40.096L249.722 41.104C249.402 41.4453 248.991 41.7067 248.49 41.888C247.999 42.0587 247.503 42.144 247.002 42.144ZM251.623 42V33.952H253.063V37.28H254.519L257.111 33.952H258.695L255.687 37.872L255.303 37.424C255.612 37.456 255.879 37.536 256.103 37.664C256.327 37.7813 256.54 37.9573 256.743 38.192C256.956 38.4267 257.186 38.7413 257.431 39.136L259.095 42H257.527L256.071 39.52C255.911 39.232 255.751 39.008 255.591 38.848C255.431 38.688 255.25 38.576 255.047 38.512C254.855 38.448 254.61 38.416 254.311 38.416H253.063V42H251.623Z" fill="black"/>
<g clip-path="url(#clip0_5_2650)">
<path d="M196.458 38.929C197.632 37.2772 198.157 35.2292 197.93 33.1949C197.702 31.1605 196.739 29.2897 195.232 27.9568C193.725 26.6239 191.786 25.9272 189.803 26.006C187.82 26.0849 185.939 26.9335 184.536 28.3821C183.133 29.8306 182.312 31.7724 182.237 33.8188C182.162 35.8652 182.838 37.8654 184.131 39.4191C185.424 40.9729 187.238 41.9657 189.21 42.1988C191.181 42.432 193.166 41.8884 194.766 40.6767H194.765C194.801 40.7267 194.84 40.7742 194.883 40.8205L199.548 45.6335C199.775 45.868 200.083 45.9999 200.405 46C200.726 46.0001 201.034 45.8685 201.262 45.6341C201.489 45.3997 201.617 45.0817 201.617 44.7501C201.617 44.4184 201.489 44.1004 201.262 43.8658L196.598 39.0528C196.554 39.0075 196.508 38.9657 196.458 38.9278V38.929ZM196.771 34.1235C196.771 35.0265 196.599 35.9205 196.264 36.7547C195.929 37.5889 195.438 38.3469 194.819 38.9854C194.2 39.6239 193.466 40.1303 192.657 40.4759C191.849 40.8214 190.982 40.9992 190.107 40.9992C189.232 40.9992 188.366 40.8214 187.557 40.4759C186.749 40.1303 186.014 39.6239 185.395 38.9854C184.777 38.3469 184.286 37.5889 183.951 36.7547C183.616 35.9205 183.444 35.0265 183.444 34.1235C183.444 32.3 184.146 30.5511 185.395 29.2617C186.645 27.9722 188.34 27.2478 190.107 27.2478C191.875 27.2478 193.57 27.9722 194.819 29.2617C196.069 30.5511 196.771 32.3 196.771 34.1235Z" fill="black"/>
</g>
<defs>
<clipPath id="clip0_5_2650">
<rect x="182" y="26" width="20" height="20" rx="5" fill="white"/>
</clipPath>
</defs>
</svg>
