<svg width="1920" height="1080" viewBox="0 0 1920 1080" fill="none" xmlns="http://www.w3.org/2000/svg">
<g opacity="0.08">
<path d="M208.212 66.2415L170.758 101.307H163.057V94.0982L192.82 66.2415L163.057 38.3468V31.1005H170.718L208.212 66.2415Z" fill="#00AAFF"/>
<path opacity="0.8" d="M163.057 66.2415L125.613 101.307H117.911V94.0982L147.674 66.2415L117.911 38.3468V31.1005H125.572L163.057 66.2415Z" fill="#00AAFF"/>
<path opacity="0.6" d="M117.911 66.2415L80.4572 101.307H72.766V94.0982L102.529 66.2415L72.766 38.3468V31.1005H80.4269L117.911 66.2415Z" fill="#00AAFF"/>
<path opacity="0.4" d="M72.766 66.2415L35.3119 101.307H27.6207V94.0982L57.3735 66.2415L27.6207 38.3468V31.1005H35.2714L72.766 66.2415Z" fill="#00AAFF"/>
<path opacity="0.2" d="M27.6207 66.2415L-9.83339 101.307H-17.5246V94.0982L12.2282 66.2415L-17.5246 38.3468V31.1005H-9.87387L27.6207 66.2415Z" fill="#00AAFF"/>
<path d="M433.949 66.2415L396.495 101.307H388.804V94.0982L418.556 66.2415L388.804 38.3468V31.1005H396.454L433.949 66.2415Z" fill="#00AAFF"/>
<path opacity="0.8" d="M388.803 66.2415L351.349 101.307H343.648V94.0982L373.411 66.2415L343.648 38.3468V31.1005H351.309L388.803 66.2415Z" fill="#00AAFF"/>
<path opacity="0.6" d="M343.648 66.2415L306.194 101.307H298.503V94.0982L328.266 66.2415L298.503 38.3468V31.1005H306.164L343.648 66.2415Z" fill="#00AAFF"/>
<path opacity="0.4" d="M298.503 66.2415L261.049 101.307H253.357V94.0982L283.12 66.2415L253.357 38.3468V31.1005H261.018L298.503 66.2415Z" fill="#00AAFF"/>
<path opacity="0.2" d="M253.357 66.2415L215.903 101.307H208.212V94.0982L237.965 66.2415L208.212 38.3468V31.1005H215.863L253.357 66.2415Z" fill="#00AAFF"/>
<path opacity="0.02" d="M208.212 66.2415L170.758 101.307H163.057V94.0982L192.82 66.2415L163.057 38.3468V31.1005H170.718L208.212 66.2415Z" fill="#00AAFF"/>
<path d="M659.686 66.2415L622.231 101.307H614.54V94.0982L644.303 66.2415L614.54 38.3468V31.1005H622.201L659.686 66.2415Z" fill="#00AAFF"/>
<path opacity="0.8" d="M614.54 66.2415L577.086 101.307H569.395V94.0982L599.148 66.2415L569.395 38.3468V31.1005H577.046L614.54 66.2415Z" fill="#00AAFF"/>
<path opacity="0.6" d="M569.395 66.2415L531.941 101.307H524.239V94.0982L554.002 66.2415L524.239 38.3468V31.1005H531.9L569.395 66.2415Z" fill="#00AAFF"/>
<path opacity="0.4" d="M524.239 66.2415L486.785 101.307H479.094V94.0982L508.857 66.2415L479.094 38.3468V31.1005H486.755L524.239 66.2415Z" fill="#00AAFF"/>
<path opacity="0.2" d="M479.094 66.2415L441.64 101.307H433.949V94.0982L463.712 66.2415L433.949 38.3468V31.1005H441.61L479.094 66.2415Z" fill="#00AAFF"/>
<path opacity="0.02" d="M433.949 66.2415L396.495 101.307H388.803V94.0982L418.556 66.2415L388.803 38.3468V31.1005H396.454L433.949 66.2415Z" fill="#00AAFF"/>
<path d="M885.422 66.2415L847.968 101.307H840.277V94.0982L870.04 66.2415L840.277 38.3468V31.1005H847.938L885.422 66.2415Z" fill="#00AAFF"/>
<path opacity="0.8" d="M840.277 66.2415L802.823 101.307H795.132V94.0982L824.895 66.2415L795.132 38.3468V31.1005H802.792L840.277 66.2415Z" fill="#00AAFF"/>
<path opacity="0.6" d="M795.132 66.2415L757.678 101.307H749.986V94.0982L779.739 66.2415L749.986 38.3468V31.1005H757.637L795.132 66.2415Z" fill="#00AAFF"/>
<path opacity="0.4" d="M749.986 66.2415L712.532 101.307H704.831V94.0982L734.594 66.2415L704.831 38.3468V31.1005H712.492L749.986 66.2415Z" fill="#00AAFF"/>
<path opacity="0.2" d="M704.831 66.2415L667.377 101.307H659.686V94.0982L689.448 66.2415L659.686 38.3468V31.1005H667.346L704.831 66.2415Z" fill="#00AAFF"/>
<path opacity="0.02" d="M659.686 66.2415L622.231 101.307H614.54V94.0982L644.303 66.2415L614.54 38.3468V31.1005H622.201L659.686 66.2415Z" fill="#00AAFF"/>
<path d="M1111.17 66.2415L1073.71 101.307H1066.01V94.0982L1095.78 66.2415L1066.01 38.3468V31.1005H1073.67L1111.17 66.2415Z" fill="#00AAFF"/>
<path opacity="0.8" d="M1066.01 66.2415L1028.56 101.307H1020.87V94.0982L1050.63 66.2415L1020.87 38.3468V31.1005H1028.53L1066.01 66.2415Z" fill="#00AAFF"/>
<path opacity="0.6" d="M1020.87 66.2415L983.414 101.307H975.723V94.0982L1005.49 66.2415L975.723 38.3468V31.1005H983.384L1020.87 66.2415Z" fill="#00AAFF"/>
<path opacity="0.4" d="M975.723 66.2415L938.269 101.307H930.578V94.0982L960.33 66.2415L930.578 38.3468V31.1005H938.228L975.723 66.2415Z" fill="#00AAFF"/>
<path opacity="0.2" d="M930.578 66.2415L893.124 101.307H885.422V94.0982L915.185 66.2415L885.422 38.3468V31.1005H893.083L930.578 66.2415Z" fill="#00AAFF"/>
<path opacity="0.02" d="M885.422 66.2415L847.968 101.307H840.277V94.0982L870.04 66.2415L840.277 38.3468V31.1005H847.938L885.422 66.2415Z" fill="#00AAFF"/>
<path d="M1336.91 66.2415L1299.45 101.307H1291.76V94.0982L1321.51 66.2415L1291.76 38.3468V31.1005H1299.41L1336.91 66.2415Z" fill="#00AAFF"/>
<path opacity="0.8" d="M1291.76 66.2415L1254.31 101.307H1246.6V94.0982L1276.37 66.2415L1246.6 38.3468V31.1005H1254.27L1291.76 66.2415Z" fill="#00AAFF"/>
<path opacity="0.6" d="M1246.61 66.2415L1209.15 101.307H1201.46V94.0982L1231.22 66.2415L1201.46 38.3468V31.1005H1209.12L1246.61 66.2415Z" fill="#00AAFF"/>
<path opacity="0.4" d="M1201.46 66.2415L1164.01 101.307H1156.31V94.0982L1186.08 66.2415L1156.31 38.3468V31.1005H1163.98L1201.46 66.2415Z" fill="#00AAFF"/>
<path opacity="0.2" d="M1156.31 66.2415L1118.86 101.307H1111.17V94.0982L1140.92 66.2415L1111.17 38.3468V31.1005H1118.82L1156.31 66.2415Z" fill="#00AAFF"/>
<path opacity="0.02" d="M1111.17 66.2415L1073.71 101.307H1066.01V94.0982L1095.78 66.2415L1066.01 38.3468V31.1005H1073.67L1111.17 66.2415Z" fill="#00AAFF"/>
<path d="M1562.64 66.2415L1525.19 101.307H1517.5V94.0982L1547.25 66.2415L1517.5 38.3468V31.1005H1525.15L1562.64 66.2415Z" fill="#00AAFF"/>
<path opacity="0.8" d="M1517.5 66.2415L1480.04 101.307H1472.35V94.0982L1502.1 66.2415L1472.35 38.3468V31.1005H1480L1517.5 66.2415Z" fill="#00AAFF"/>
<path opacity="0.6" d="M1472.35 66.2415L1434.9 101.307H1427.2V94.0982L1456.96 66.2415L1427.2 38.3468V31.1005H1434.86L1472.35 66.2415Z" fill="#00AAFF"/>
<path opacity="0.4" d="M1427.2 66.2415L1389.74 101.307H1382.05V94.0982L1411.81 66.2415L1382.05 38.3468V31.1005H1389.71L1427.2 66.2415Z" fill="#00AAFF"/>
<path opacity="0.2" d="M1382.05 66.2415L1344.6 101.307H1336.91V94.0982L1366.66 66.2415L1336.91 38.3468V31.1005H1344.56L1382.05 66.2415Z" fill="#00AAFF"/>
<path opacity="0.02" d="M1336.91 66.2415L1299.45 101.307H1291.76V94.0982L1321.51 66.2415L1291.76 38.3468V31.1005H1299.41L1336.91 66.2415Z" fill="#00AAFF"/>
<path d="M1788.38 66.2415L1750.93 101.307H1743.23V94.0982L1773 66.2415L1743.23 38.3468V31.1005H1750.89L1788.38 66.2415Z" fill="#00AAFF"/>
<path opacity="0.8" d="M1743.23 66.2415L1705.78 101.307H1698.09V94.0982L1727.84 66.2415L1698.09 38.3468V31.1005H1705.74L1743.23 66.2415Z" fill="#00AAFF"/>
<path opacity="0.6" d="M1698.09 66.2415L1660.63 101.307H1652.94V94.0982L1682.7 66.2415L1652.94 38.3468V31.1005H1660.59L1698.09 66.2415Z" fill="#00AAFF"/>
<path opacity="0.4" d="M1652.94 66.2415L1615.49 101.307H1607.79V94.0982L1637.55 66.2415L1607.79 38.3468V31.1005H1615.45L1652.94 66.2415Z" fill="#00AAFF"/>
<path opacity="0.2" d="M1607.79 66.2415L1570.33 101.307H1562.64V94.0982L1592.41 66.2415L1562.64 38.3468V31.1005H1570.3L1607.79 66.2415Z" fill="#00AAFF"/>
<path opacity="0.02" d="M1562.64 66.2415L1525.19 101.307H1517.5V94.0982L1547.25 66.2415L1517.5 38.3468V31.1005H1525.15L1562.64 66.2415Z" fill="#00AAFF"/>
<path d="M298.503 152.24L261.049 187.314H253.357V180.096L283.12 152.24L253.357 124.345V117.108H261.018L298.503 152.24Z" fill="#00AAFF"/>
<path opacity="0.8" d="M253.357 152.24L215.903 187.314H208.212V180.096L237.965 152.24L208.212 124.345V117.108H215.863L253.357 152.24Z" fill="#00AAFF"/>
<path opacity="0.6" d="M208.212 152.24L170.758 187.314H163.057V180.096L192.82 152.24L163.057 124.345V117.108H170.718L208.212 152.24Z" fill="#00AAFF"/>
<path opacity="0.4" d="M163.057 152.24L125.613 187.314H117.911V180.096L147.674 152.24L117.911 124.345V117.108H125.572L163.057 152.24Z" fill="#00AAFF"/>
<path opacity="0.2" d="M117.911 152.24L80.4572 187.314H72.766V180.096L102.529 152.24L72.766 124.345V117.108H80.4269L117.911 152.24Z" fill="#00AAFF"/>
<path opacity="0.02" d="M72.7661 152.24L35.3119 187.314H27.6207V180.096L57.3735 152.24L27.6207 124.345V117.108H35.2714L72.7661 152.24Z" fill="#00AAFF"/>
<path d="M524.239 152.24L486.785 187.314H479.094V180.096L508.857 152.24L479.094 124.345V117.108H486.755L524.239 152.24Z" fill="#00AAFF"/>
<path opacity="0.8" d="M479.094 152.24L441.64 187.314H433.949V180.096L463.712 152.24L433.949 124.345V117.108H441.61L479.094 152.24Z" fill="#00AAFF"/>
<path opacity="0.6" d="M433.949 152.24L396.495 187.314H388.804V180.096L418.556 152.24L388.804 124.345V117.108H396.454L433.949 152.24Z" fill="#00AAFF"/>
<path opacity="0.4" d="M388.804 152.24L351.349 187.314H343.648V180.096L373.411 152.24L343.648 124.345V117.108H351.309L388.804 152.24Z" fill="#00AAFF"/>
<path opacity="0.2" d="M343.648 152.24L306.194 187.314H298.503V180.096L328.266 152.24L298.503 124.345V117.108H306.164L343.648 152.24Z" fill="#00AAFF"/>
<path opacity="0.02" d="M298.503 152.24L261.049 187.314H253.357V180.096L283.12 152.24L253.357 124.345V117.108H261.018L298.503 152.24Z" fill="#00AAFF"/>
<path d="M749.986 152.24L712.532 187.314H704.831V180.096L734.594 152.24L704.831 124.345V117.108H712.492L749.986 152.24Z" fill="#00AAFF"/>
<path opacity="0.8" d="M704.831 152.24L667.377 187.314H659.686V180.096L689.448 152.24L659.686 124.345V117.108H667.346L704.831 152.24Z" fill="#00AAFF"/>
<path opacity="0.6" d="M659.686 152.24L622.231 187.314H614.54V180.096L644.303 152.24L614.54 124.345V117.108H622.201L659.686 152.24Z" fill="#00AAFF"/>
<path opacity="0.4" d="M614.54 152.24L577.086 187.314H569.395V180.096L599.148 152.24L569.395 124.345V117.108H577.046L614.54 152.24Z" fill="#00AAFF"/>
<path opacity="0.2" d="M569.395 152.24L531.941 187.314H524.239V180.096L554.002 152.24L524.239 124.345V117.108H531.9L569.395 152.24Z" fill="#00AAFF"/>
<path opacity="0.02" d="M524.239 152.24L486.785 187.314H479.094V180.096L508.857 152.24L479.094 124.345V117.108H486.755L524.239 152.24Z" fill="#00AAFF"/>
<path d="M975.723 152.24L938.269 187.314H930.578V180.096L960.33 152.24L930.578 124.345V117.108H938.228L975.723 152.24Z" fill="#00AAFF"/>
<path opacity="0.8" d="M930.578 152.24L893.124 187.314H885.422V180.096L915.185 152.24L885.422 124.345V117.108H893.083L930.578 152.24Z" fill="#00AAFF"/>
<path opacity="0.6" d="M885.422 152.24L847.968 187.314H840.277V180.096L870.04 152.24L840.277 124.345V117.108H847.938L885.422 152.24Z" fill="#00AAFF"/>
<path opacity="0.4" d="M840.277 152.24L802.823 187.314H795.132V180.096L824.895 152.24L795.132 124.345V117.108H802.792L840.277 152.24Z" fill="#00AAFF"/>
<path opacity="0.2" d="M795.132 152.24L757.678 187.314H749.986V180.096L779.739 152.24L749.986 124.345V117.108H757.637L795.132 152.24Z" fill="#00AAFF"/>
<path opacity="0.02" d="M749.986 152.24L712.532 187.314H704.831V180.096L734.594 152.24L704.831 124.345V117.108H712.492L749.986 152.24Z" fill="#00AAFF"/>
<path d="M1201.46 152.24L1164.01 187.314H1156.31V180.096L1186.08 152.24L1156.31 124.345V117.108H1163.98L1201.46 152.24Z" fill="#00AAFF"/>
<path opacity="0.8" d="M1156.31 152.24L1118.86 187.314H1111.17V180.096L1140.92 152.24L1111.17 124.345V117.108H1118.82L1156.31 152.24Z" fill="#00AAFF"/>
<path opacity="0.6" d="M1111.17 152.24L1073.72 187.314H1066.01V180.096L1095.78 152.24L1066.01 124.345V117.108H1073.67L1111.17 152.24Z" fill="#00AAFF"/>
<path opacity="0.4" d="M1066.01 152.24L1028.56 187.314H1020.87V180.096L1050.63 152.24L1020.87 124.345V117.108H1028.53L1066.01 152.24Z" fill="#00AAFF"/>
<path opacity="0.2" d="M1020.87 152.24L983.414 187.314H975.723V180.096L1005.49 152.24L975.723 124.345V117.108H983.384L1020.87 152.24Z" fill="#00AAFF"/>
<path opacity="0.02" d="M975.723 152.24L938.269 187.314H930.578V180.096L960.331 152.24L930.578 124.345V117.108H938.229L975.723 152.24Z" fill="#00AAFF"/>
<path d="M1427.2 152.24L1389.74 187.314H1382.05V180.096L1411.81 152.24L1382.05 124.345V117.108H1389.71L1427.2 152.24Z" fill="#00AAFF"/>
<path opacity="0.8" d="M1382.05 152.24L1344.6 187.314H1336.91V180.096L1366.66 152.24L1336.91 124.345V117.108H1344.56L1382.05 152.24Z" fill="#00AAFF"/>
<path opacity="0.6" d="M1336.91 152.24L1299.45 187.314H1291.76V180.096L1321.51 152.24L1291.76 124.345V117.108H1299.41L1336.91 152.24Z" fill="#00AAFF"/>
<path opacity="0.4" d="M1291.76 152.24L1254.31 187.314H1246.6V180.096L1276.37 152.24L1246.6 124.345V117.108H1254.27L1291.76 152.24Z" fill="#00AAFF"/>
<path opacity="0.2" d="M1246.61 152.24L1209.15 187.314H1201.46V180.096L1231.22 152.24L1201.46 124.345V117.108H1209.12L1246.61 152.24Z" fill="#00AAFF"/>
<path opacity="0.02" d="M1201.46 152.24L1164.01 187.314H1156.31V180.096L1186.08 152.24L1156.31 124.345V117.108H1163.98L1201.46 152.24Z" fill="#00AAFF"/>
<path d="M1652.94 152.24L1615.49 187.314H1607.79V180.096L1637.55 152.24L1607.79 124.345V117.108H1615.45L1652.94 152.24Z" fill="#00AAFF"/>
<path opacity="0.8" d="M1607.79 152.24L1570.33 187.314H1562.64V180.096L1592.41 152.24L1562.64 124.345V117.108H1570.3L1607.79 152.24Z" fill="#00AAFF"/>
<path opacity="0.6" d="M1562.64 152.24L1525.19 187.314H1517.5V180.096L1547.25 152.24L1517.5 124.345V117.108H1525.15L1562.64 152.24Z" fill="#00AAFF"/>
<path opacity="0.4" d="M1517.5 152.24L1480.04 187.314H1472.35V180.096L1502.1 152.24L1472.35 124.345V117.108H1480L1517.5 152.24Z" fill="#00AAFF"/>
<path opacity="0.2" d="M1472.35 152.24L1434.9 187.314H1427.2V180.096L1456.96 152.24L1427.2 124.345V117.108H1434.86L1472.35 152.24Z" fill="#00AAFF"/>
<path opacity="0.02" d="M1427.2 152.24L1389.74 187.314H1382.05V180.096L1411.81 152.24L1382.05 124.345V117.108H1389.71L1427.2 152.24Z" fill="#00AAFF"/>
<path d="M1878.68 152.24L1841.23 187.314H1833.52V180.096L1863.29 152.24L1833.52 124.345V117.108H1841.19L1878.68 152.24Z" fill="#00AAFF"/>
<path opacity="0.8" d="M1833.52 152.24L1796.08 187.314H1788.38V180.096L1818.14 152.24L1788.38 124.345V117.108H1796.04L1833.52 152.24Z" fill="#00AAFF"/>
<path opacity="0.6" d="M1788.38 152.24L1750.93 187.314H1743.23V180.096L1773 152.24L1743.23 124.345V117.108H1750.89L1788.38 152.24Z" fill="#00AAFF"/>
<path opacity="0.4" d="M1743.23 152.24L1705.78 187.314H1698.09V180.096L1727.84 152.24L1698.09 124.345V117.108H1705.74L1743.23 152.24Z" fill="#00AAFF"/>
<path opacity="0.2" d="M1698.09 152.24L1660.63 187.314H1652.94V180.096L1682.7 152.24L1652.94 124.345V117.108H1660.59L1698.09 152.24Z" fill="#00AAFF"/>
<path opacity="0.02" d="M1652.94 152.24L1615.49 187.314H1607.79V180.096L1637.55 152.24L1607.79 124.345V117.108H1615.45L1652.94 152.24Z" fill="#00AAFF"/>
<path d="M208.212 238.247L170.758 273.313H163.057V266.104L192.82 238.247L163.057 210.353V203.106H170.718L208.212 238.247Z" fill="#00AAFF"/>
<path opacity="0.8" d="M163.057 238.247L125.613 273.313H117.911V266.104L147.674 238.247L117.911 210.353V203.106H125.572L163.057 238.247Z" fill="#00AAFF"/>
<path opacity="0.6" d="M117.911 238.247L80.4572 273.313H72.766V266.104L102.529 238.247L72.766 210.353V203.106H80.4269L117.911 238.247Z" fill="#00AAFF"/>
<path opacity="0.4" d="M72.766 238.247L35.3119 273.313H27.6207V266.104L57.3735 238.247L27.6207 210.353V203.106H35.2714L72.766 238.247Z" fill="#00AAFF"/>
<path opacity="0.2" d="M27.6207 238.247L-9.83339 273.313H-17.5246V266.104L12.2282 238.247L-17.5246 210.353V203.106H-9.87387L27.6207 238.247Z" fill="#00AAFF"/>
<path d="M433.949 238.247L396.495 273.313H388.804V266.104L418.556 238.247L388.804 210.353V203.106H396.454L433.949 238.247Z" fill="#00AAFF"/>
<path opacity="0.8" d="M388.803 238.247L351.349 273.313H343.648V266.104L373.411 238.247L343.648 210.353V203.106H351.309L388.803 238.247Z" fill="#00AAFF"/>
<path opacity="0.6" d="M343.648 238.247L306.194 273.313H298.503V266.104L328.266 238.247L298.503 210.353V203.106H306.164L343.648 238.247Z" fill="#00AAFF"/>
<path opacity="0.4" d="M298.503 238.247L261.049 273.313H253.357V266.104L283.12 238.247L253.357 210.353V203.106H261.018L298.503 238.247Z" fill="#00AAFF"/>
<path opacity="0.2" d="M253.357 238.247L215.903 273.313H208.212V266.104L237.965 238.247L208.212 210.353V203.106H215.863L253.357 238.247Z" fill="#00AAFF"/>
<path opacity="0.02" d="M208.212 238.247L170.758 273.313H163.057V266.104L192.82 238.247L163.057 210.353V203.106H170.718L208.212 238.247Z" fill="#00AAFF"/>
<path d="M659.686 238.247L622.231 273.313H614.54V266.104L644.303 238.247L614.54 210.353V203.106H622.201L659.686 238.247Z" fill="#00AAFF"/>
<path opacity="0.8" d="M614.54 238.247L577.086 273.313H569.395V266.104L599.148 238.247L569.395 210.353V203.106H577.046L614.54 238.247Z" fill="#00AAFF"/>
<path opacity="0.6" d="M569.395 238.247L531.941 273.313H524.239V266.104L554.002 238.247L524.239 210.353V203.106H531.9L569.395 238.247Z" fill="#00AAFF"/>
<path opacity="0.4" d="M524.239 238.247L486.785 273.313H479.094V266.104L508.857 238.247L479.094 210.353V203.106H486.755L524.239 238.247Z" fill="#00AAFF"/>
<path opacity="0.2" d="M479.094 238.247L441.64 273.313H433.949V266.104L463.712 238.247L433.949 210.353V203.106H441.61L479.094 238.247Z" fill="#00AAFF"/>
<path opacity="0.02" d="M433.949 238.247L396.495 273.313H388.803V266.104L418.556 238.247L388.803 210.353V203.106H396.454L433.949 238.247Z" fill="#00AAFF"/>
<path d="M885.422 238.247L847.968 273.313H840.277V266.104L870.04 238.247L840.277 210.353V203.106H847.938L885.422 238.247Z" fill="#00AAFF"/>
<path opacity="0.8" d="M840.277 238.247L802.823 273.313H795.132V266.104L824.895 238.247L795.132 210.353V203.106H802.792L840.277 238.247Z" fill="#00AAFF"/>
<path opacity="0.6" d="M795.132 238.247L757.678 273.313H749.986V266.104L779.739 238.247L749.986 210.353V203.106H757.637L795.132 238.247Z" fill="#00AAFF"/>
<path opacity="0.4" d="M749.986 238.247L712.532 273.313H704.831V266.104L734.594 238.247L704.831 210.353V203.106H712.492L749.986 238.247Z" fill="#00AAFF"/>
<path opacity="0.2" d="M704.831 238.247L667.377 273.313H659.686V266.104L689.448 238.247L659.686 210.353V203.106H667.346L704.831 238.247Z" fill="#00AAFF"/>
<path opacity="0.02" d="M659.686 238.247L622.231 273.313H614.54V266.104L644.303 238.247L614.54 210.353V203.106H622.201L659.686 238.247Z" fill="#00AAFF"/>
<path d="M1111.17 238.247L1073.71 273.313H1066.01V266.104L1095.78 238.247L1066.01 210.353V203.106H1073.67L1111.17 238.247Z" fill="#00AAFF"/>
<path opacity="0.8" d="M1066.01 238.247L1028.56 273.313H1020.87V266.104L1050.63 238.247L1020.87 210.353V203.106H1028.53L1066.01 238.247Z" fill="#00AAFF"/>
<path opacity="0.6" d="M1020.87 238.247L983.414 273.313H975.723V266.104L1005.49 238.247L975.723 210.353V203.106H983.384L1020.87 238.247Z" fill="#00AAFF"/>
<path opacity="0.4" d="M975.723 238.247L938.269 273.313H930.578V266.104L960.33 238.247L930.578 210.353V203.106H938.228L975.723 238.247Z" fill="#00AAFF"/>
<path opacity="0.2" d="M930.578 238.247L893.124 273.313H885.422V266.104L915.185 238.247L885.422 210.353V203.106H893.083L930.578 238.247Z" fill="#00AAFF"/>
<path opacity="0.02" d="M885.422 238.247L847.968 273.313H840.277V266.104L870.04 238.247L840.277 210.353V203.106H847.938L885.422 238.247Z" fill="#00AAFF"/>
<path d="M1336.91 238.247L1299.45 273.313H1291.76V266.104L1321.51 238.247L1291.76 210.353V203.106H1299.41L1336.91 238.247Z" fill="#00AAFF"/>
<path opacity="0.8" d="M1291.76 238.247L1254.31 273.313H1246.6V266.104L1276.37 238.247L1246.6 210.353V203.106H1254.27L1291.76 238.247Z" fill="#00AAFF"/>
<path opacity="0.6" d="M1246.61 238.247L1209.15 273.313H1201.46V266.104L1231.22 238.247L1201.46 210.353V203.106H1209.12L1246.61 238.247Z" fill="#00AAFF"/>
<path opacity="0.4" d="M1201.46 238.247L1164.01 273.313H1156.31V266.104L1186.08 238.247L1156.31 210.353V203.106H1163.98L1201.46 238.247Z" fill="#00AAFF"/>
<path opacity="0.2" d="M1156.31 238.247L1118.86 273.313H1111.17V266.104L1140.92 238.247L1111.17 210.353V203.106H1118.82L1156.31 238.247Z" fill="#00AAFF"/>
<path opacity="0.02" d="M1111.17 238.247L1073.71 273.313H1066.01V266.104L1095.78 238.247L1066.01 210.353V203.106H1073.67L1111.17 238.247Z" fill="#00AAFF"/>
<path d="M1562.64 238.247L1525.19 273.313H1517.5V266.104L1547.25 238.247L1517.5 210.353V203.106H1525.15L1562.64 238.247Z" fill="#00AAFF"/>
<path opacity="0.8" d="M1517.5 238.247L1480.04 273.313H1472.35V266.104L1502.1 238.247L1472.35 210.353V203.106H1480L1517.5 238.247Z" fill="#00AAFF"/>
<path opacity="0.6" d="M1472.35 238.247L1434.9 273.313H1427.2V266.104L1456.96 238.247L1427.2 210.353V203.106H1434.86L1472.35 238.247Z" fill="#00AAFF"/>
<path opacity="0.4" d="M1427.2 238.247L1389.74 273.313H1382.05V266.104L1411.81 238.247L1382.05 210.353V203.106H1389.71L1427.2 238.247Z" fill="#00AAFF"/>
<path opacity="0.2" d="M1382.05 238.247L1344.6 273.313H1336.91V266.104L1366.66 238.247L1336.91 210.353V203.106H1344.56L1382.05 238.247Z" fill="#00AAFF"/>
<path opacity="0.02" d="M1336.91 238.247L1299.45 273.313H1291.76V266.104L1321.51 238.247L1291.76 210.353V203.106H1299.41L1336.91 238.247Z" fill="#00AAFF"/>
<path d="M1788.38 238.247L1750.93 273.313H1743.23V266.104L1773 238.247L1743.23 210.353V203.106H1750.89L1788.38 238.247Z" fill="#00AAFF"/>
<path opacity="0.8" d="M1743.23 238.247L1705.78 273.313H1698.09V266.104L1727.84 238.247L1698.09 210.353V203.106H1705.74L1743.23 238.247Z" fill="#00AAFF"/>
<path opacity="0.6" d="M1698.09 238.247L1660.63 273.313H1652.94V266.104L1682.7 238.247L1652.94 210.353V203.106H1660.59L1698.09 238.247Z" fill="#00AAFF"/>
<path opacity="0.4" d="M1652.94 238.247L1615.49 273.313H1607.79V266.104L1637.55 238.247L1607.79 210.353V203.106H1615.45L1652.94 238.247Z" fill="#00AAFF"/>
<path opacity="0.2" d="M1607.79 238.247L1570.33 273.313H1562.64V266.104L1592.41 238.247L1562.64 210.353V203.106H1570.3L1607.79 238.247Z" fill="#00AAFF"/>
<path opacity="0.02" d="M1562.64 238.247L1525.19 273.313H1517.5V266.104L1547.25 238.247L1517.5 210.353V203.106H1525.15L1562.64 238.247Z" fill="#00AAFF"/>
<path d="M298.503 324.246L261.049 359.311H253.357V352.102L283.12 324.246L253.357 296.351V289.114H261.018L298.503 324.246Z" fill="#00AAFF"/>
<path opacity="0.8" d="M253.357 324.246L215.903 359.311H208.212V352.102L237.965 324.246L208.212 296.351V289.114H215.863L253.357 324.246Z" fill="#00AAFF"/>
<path opacity="0.6" d="M208.212 324.246L170.758 359.311H163.057V352.102L192.82 324.246L163.057 296.351V289.114H170.718L208.212 324.246Z" fill="#00AAFF"/>
<path opacity="0.4" d="M163.057 324.246L125.613 359.311H117.911V352.102L147.674 324.246L117.911 296.351V289.114H125.572L163.057 324.246Z" fill="#00AAFF"/>
<path opacity="0.2" d="M117.911 324.246L80.4572 359.311H72.766V352.102L102.529 324.246L72.766 296.351V289.114H80.4269L117.911 324.246Z" fill="#00AAFF"/>
<path opacity="0.02" d="M72.7661 324.246L35.3119 359.311H27.6207V352.102L57.3735 324.246L27.6207 296.351V289.114H35.2714L72.7661 324.246Z" fill="#00AAFF"/>
<path d="M524.239 324.246L486.785 359.311H479.094V352.102L508.857 324.246L479.094 296.351V289.114H486.755L524.239 324.246Z" fill="#00AAFF"/>
<path opacity="0.8" d="M479.094 324.246L441.64 359.311H433.949V352.102L463.712 324.246L433.949 296.351V289.114H441.61L479.094 324.246Z" fill="#00AAFF"/>
<path opacity="0.6" d="M433.949 324.246L396.495 359.311H388.804V352.102L418.556 324.246L388.804 296.351V289.114H396.454L433.949 324.246Z" fill="#00AAFF"/>
<path opacity="0.4" d="M388.804 324.246L351.349 359.311H343.648V352.102L373.411 324.246L343.648 296.351V289.114H351.309L388.804 324.246Z" fill="#00AAFF"/>
<path opacity="0.2" d="M343.648 324.246L306.194 359.311H298.503V352.102L328.266 324.246L298.503 296.351V289.114H306.164L343.648 324.246Z" fill="#00AAFF"/>
<path opacity="0.02" d="M298.503 324.246L261.049 359.311H253.357V352.102L283.12 324.246L253.357 296.351V289.114H261.018L298.503 324.246Z" fill="#00AAFF"/>
<path d="M749.986 324.246L712.532 359.311H704.831V352.102L734.594 324.246L704.831 296.351V289.114H712.492L749.986 324.246Z" fill="#00AAFF"/>
<path opacity="0.8" d="M704.831 324.246L667.377 359.311H659.686V352.102L689.448 324.246L659.686 296.351V289.114H667.346L704.831 324.246Z" fill="#00AAFF"/>
<path opacity="0.6" d="M659.686 324.246L622.231 359.311H614.54V352.102L644.303 324.246L614.54 296.351V289.114H622.201L659.686 324.246Z" fill="#00AAFF"/>
<path opacity="0.4" d="M614.54 324.246L577.086 359.311H569.395V352.102L599.148 324.246L569.395 296.351V289.114H577.046L614.54 324.246Z" fill="#00AAFF"/>
<path opacity="0.2" d="M569.395 324.246L531.941 359.311H524.239V352.102L554.002 324.246L524.239 296.351V289.114H531.9L569.395 324.246Z" fill="#00AAFF"/>
<path opacity="0.02" d="M524.239 324.246L486.785 359.311H479.094V352.102L508.857 324.246L479.094 296.351V289.114H486.755L524.239 324.246Z" fill="#00AAFF"/>
<path d="M975.723 324.246L938.269 359.311H930.578V352.102L960.33 324.246L930.578 296.351V289.114H938.228L975.723 324.246Z" fill="#00AAFF"/>
<path opacity="0.8" d="M930.578 324.246L893.124 359.311H885.422V352.102L915.185 324.246L885.422 296.351V289.114H893.083L930.578 324.246Z" fill="#00AAFF"/>
<path opacity="0.6" d="M885.422 324.246L847.968 359.311H840.277V352.102L870.04 324.246L840.277 296.351V289.114H847.938L885.422 324.246Z" fill="#00AAFF"/>
<path opacity="0.4" d="M840.277 324.246L802.823 359.311H795.132V352.102L824.895 324.246L795.132 296.351V289.114H802.792L840.277 324.246Z" fill="#00AAFF"/>
<path opacity="0.2" d="M795.132 324.246L757.678 359.311H749.986V352.102L779.739 324.246L749.986 296.351V289.114H757.637L795.132 324.246Z" fill="#00AAFF"/>
<path opacity="0.02" d="M749.986 324.246L712.532 359.311H704.831V352.102L734.594 324.246L704.831 296.351V289.114H712.492L749.986 324.246Z" fill="#00AAFF"/>
<path d="M1201.46 324.246L1164.01 359.311H1156.31V352.102L1186.08 324.246L1156.31 296.351V289.114H1163.98L1201.46 324.246Z" fill="#00AAFF"/>
<path opacity="0.8" d="M1156.31 324.246L1118.86 359.311H1111.17V352.102L1140.92 324.246L1111.17 296.351V289.114H1118.82L1156.31 324.246Z" fill="#00AAFF"/>
<path opacity="0.6" d="M1111.17 324.246L1073.72 359.311H1066.01V352.102L1095.78 324.246L1066.01 296.351V289.114H1073.67L1111.17 324.246Z" fill="#00AAFF"/>
<path opacity="0.4" d="M1066.01 324.246L1028.56 359.311H1020.87V352.102L1050.63 324.246L1020.87 296.351V289.114H1028.53L1066.01 324.246Z" fill="#00AAFF"/>
<path opacity="0.2" d="M1020.87 324.246L983.414 359.311H975.723V352.102L1005.49 324.246L975.723 296.351V289.114H983.384L1020.87 324.246Z" fill="#00AAFF"/>
<path opacity="0.02" d="M975.723 324.246L938.269 359.311H930.578V352.102L960.331 324.246L930.578 296.351V289.114H938.229L975.723 324.246Z" fill="#00AAFF"/>
<path d="M1427.2 324.246L1389.74 359.311H1382.05V352.102L1411.81 324.246L1382.05 296.351V289.114H1389.71L1427.2 324.246Z" fill="#00AAFF"/>
<path opacity="0.8" d="M1382.05 324.246L1344.6 359.311H1336.91V352.102L1366.66 324.246L1336.91 296.351V289.114H1344.56L1382.05 324.246Z" fill="#00AAFF"/>
<path opacity="0.6" d="M1336.91 324.246L1299.45 359.311H1291.76V352.102L1321.51 324.246L1291.76 296.351V289.114H1299.41L1336.91 324.246Z" fill="#00AAFF"/>
<path opacity="0.4" d="M1291.76 324.246L1254.31 359.311H1246.6V352.102L1276.37 324.246L1246.6 296.351V289.114H1254.27L1291.76 324.246Z" fill="#00AAFF"/>
<path opacity="0.2" d="M1246.61 324.246L1209.15 359.311H1201.46V352.102L1231.22 324.246L1201.46 296.351V289.114H1209.12L1246.61 324.246Z" fill="#00AAFF"/>
<path opacity="0.02" d="M1201.46 324.246L1164.01 359.311H1156.31V352.102L1186.08 324.246L1156.31 296.351V289.114H1163.98L1201.46 324.246Z" fill="#00AAFF"/>
<path d="M1652.94 324.246L1615.49 359.311H1607.79V352.102L1637.55 324.246L1607.79 296.351V289.114H1615.45L1652.94 324.246Z" fill="#00AAFF"/>
<path opacity="0.8" d="M1607.79 324.246L1570.33 359.311H1562.64V352.102L1592.41 324.246L1562.64 296.351V289.114H1570.3L1607.79 324.246Z" fill="#00AAFF"/>
<path opacity="0.6" d="M1562.64 324.246L1525.19 359.311H1517.5V352.102L1547.25 324.246L1517.5 296.351V289.114H1525.15L1562.64 324.246Z" fill="#00AAFF"/>
<path opacity="0.4" d="M1517.5 324.246L1480.04 359.311H1472.35V352.102L1502.1 324.246L1472.35 296.351V289.114H1480L1517.5 324.246Z" fill="#00AAFF"/>
<path opacity="0.2" d="M1472.35 324.246L1434.9 359.311H1427.2V352.102L1456.96 324.246L1427.2 296.351V289.114H1434.86L1472.35 324.246Z" fill="#00AAFF"/>
<path opacity="0.02" d="M1427.2 324.246L1389.74 359.311H1382.05V352.102L1411.81 324.246L1382.05 296.351V289.114H1389.71L1427.2 324.246Z" fill="#00AAFF"/>
<path d="M1878.68 324.246L1841.23 359.311H1833.52V352.102L1863.29 324.246L1833.52 296.351V289.114H1841.19L1878.68 324.246Z" fill="#00AAFF"/>
<path opacity="0.8" d="M1833.52 324.246L1796.08 359.311H1788.38V352.102L1818.14 324.246L1788.38 296.351V289.114H1796.04L1833.52 324.246Z" fill="#00AAFF"/>
<path opacity="0.6" d="M1788.38 324.246L1750.93 359.311H1743.23V352.102L1773 324.246L1743.23 296.351V289.114H1750.89L1788.38 324.246Z" fill="#00AAFF"/>
<path opacity="0.4" d="M1743.23 324.246L1705.78 359.311H1698.09V352.102L1727.84 324.246L1698.09 296.351V289.114H1705.74L1743.23 324.246Z" fill="#00AAFF"/>
<path opacity="0.2" d="M1698.09 324.246L1660.63 359.311H1652.94V352.102L1682.7 324.246L1652.94 296.351V289.114H1660.59L1698.09 324.246Z" fill="#00AAFF"/>
<path opacity="0.02" d="M1652.94 324.246L1615.49 359.311H1607.79V352.102L1637.55 324.246L1607.79 296.351V289.114H1615.45L1652.94 324.246Z" fill="#00AAFF"/>
<path d="M208.212 410.253L170.758 445.318H163.057V438.11L192.82 410.253L163.057 382.359V375.112H170.718L208.212 410.253Z" fill="#00AAFF"/>
<path opacity="0.8" d="M163.057 410.253L125.613 445.318H117.911V438.11L147.674 410.253L117.911 382.359V375.112H125.572L163.057 410.253Z" fill="#00AAFF"/>
<path opacity="0.6" d="M117.911 410.253L80.4572 445.318H72.766V438.11L102.529 410.253L72.766 382.359V375.112H80.4269L117.911 410.253Z" fill="#00AAFF"/>
<path opacity="0.4" d="M72.766 410.253L35.3119 445.318H27.6207V438.11L57.3735 410.253L27.6207 382.359V375.112H35.2714L72.766 410.253Z" fill="#00AAFF"/>
<path opacity="0.2" d="M27.6207 410.253L-9.83339 445.318H-17.5246V438.11L12.2282 410.253L-17.5246 382.359V375.112H-9.87387L27.6207 410.253Z" fill="#00AAFF"/>
<path d="M433.949 410.253L396.495 445.318H388.804V438.11L418.556 410.253L388.804 382.359V375.112H396.454L433.949 410.253Z" fill="#00AAFF"/>
<path opacity="0.8" d="M388.803 410.253L351.349 445.318H343.648V438.11L373.411 410.253L343.648 382.359V375.112H351.309L388.803 410.253Z" fill="#00AAFF"/>
<path opacity="0.6" d="M343.648 410.253L306.194 445.318H298.503V438.11L328.266 410.253L298.503 382.359V375.112H306.164L343.648 410.253Z" fill="#00AAFF"/>
<path opacity="0.4" d="M298.503 410.253L261.049 445.318H253.357V438.11L283.12 410.253L253.357 382.359V375.112H261.018L298.503 410.253Z" fill="#00AAFF"/>
<path opacity="0.2" d="M253.357 410.253L215.903 445.318H208.212V438.11L237.965 410.253L208.212 382.359V375.112H215.863L253.357 410.253Z" fill="#00AAFF"/>
<path opacity="0.02" d="M208.212 410.253L170.758 445.318H163.057V438.11L192.82 410.253L163.057 382.359V375.112H170.718L208.212 410.253Z" fill="#00AAFF"/>
<path d="M659.686 410.253L622.231 445.318H614.54V438.11L644.303 410.253L614.54 382.359V375.112H622.201L659.686 410.253Z" fill="#00AAFF"/>
<path opacity="0.8" d="M614.54 410.253L577.086 445.318H569.395V438.11L599.148 410.253L569.395 382.359V375.112H577.046L614.54 410.253Z" fill="#00AAFF"/>
<path opacity="0.6" d="M569.395 410.253L531.941 445.318H524.239V438.11L554.002 410.253L524.239 382.359V375.112H531.9L569.395 410.253Z" fill="#00AAFF"/>
<path opacity="0.4" d="M524.239 410.253L486.785 445.318H479.094V438.11L508.857 410.253L479.094 382.359V375.112H486.755L524.239 410.253Z" fill="#00AAFF"/>
<path opacity="0.2" d="M479.094 410.253L441.64 445.318H433.949V438.11L463.712 410.253L433.949 382.359V375.112H441.61L479.094 410.253Z" fill="#00AAFF"/>
<path opacity="0.02" d="M433.949 410.253L396.495 445.318H388.803V438.11L418.556 410.253L388.803 382.359V375.112H396.454L433.949 410.253Z" fill="#00AAFF"/>
<path d="M885.422 410.253L847.968 445.318H840.277V438.11L870.04 410.253L840.277 382.359V375.112H847.938L885.422 410.253Z" fill="#00AAFF"/>
<path opacity="0.8" d="M840.277 410.253L802.823 445.318H795.132V438.11L824.895 410.253L795.132 382.359V375.112H802.792L840.277 410.253Z" fill="#00AAFF"/>
<path opacity="0.6" d="M795.132 410.253L757.678 445.318H749.986V438.11L779.739 410.253L749.986 382.359V375.112H757.637L795.132 410.253Z" fill="#00AAFF"/>
<path opacity="0.4" d="M749.986 410.253L712.532 445.318H704.831V438.11L734.594 410.253L704.831 382.359V375.112H712.492L749.986 410.253Z" fill="#00AAFF"/>
<path opacity="0.2" d="M704.831 410.253L667.377 445.318H659.686V438.11L689.448 410.253L659.686 382.359V375.112H667.346L704.831 410.253Z" fill="#00AAFF"/>
<path opacity="0.02" d="M659.686 410.253L622.231 445.318H614.54V438.11L644.303 410.253L614.54 382.359V375.112H622.201L659.686 410.253Z" fill="#00AAFF"/>
<path d="M1111.17 410.253L1073.71 445.318H1066.01V438.11L1095.78 410.253L1066.01 382.359V375.112H1073.67L1111.17 410.253Z" fill="#00AAFF"/>
<path opacity="0.8" d="M1066.01 410.253L1028.56 445.318H1020.87V438.11L1050.63 410.253L1020.87 382.359V375.112H1028.53L1066.01 410.253Z" fill="#00AAFF"/>
<path opacity="0.6" d="M1020.87 410.253L983.414 445.318H975.723V438.11L1005.49 410.253L975.723 382.359V375.112H983.384L1020.87 410.253Z" fill="#00AAFF"/>
<path opacity="0.4" d="M975.723 410.253L938.269 445.318H930.578V438.11L960.33 410.253L930.578 382.359V375.112H938.228L975.723 410.253Z" fill="#00AAFF"/>
<path opacity="0.2" d="M930.578 410.253L893.124 445.318H885.422V438.11L915.185 410.253L885.422 382.359V375.112H893.083L930.578 410.253Z" fill="#00AAFF"/>
<path opacity="0.02" d="M885.422 410.253L847.968 445.318H840.277V438.11L870.04 410.253L840.277 382.359V375.112H847.938L885.422 410.253Z" fill="#00AAFF"/>
<path d="M1336.91 410.253L1299.45 445.318H1291.76V438.11L1321.51 410.253L1291.76 382.359V375.112H1299.41L1336.91 410.253Z" fill="#00AAFF"/>
<path opacity="0.8" d="M1291.76 410.253L1254.31 445.318H1246.6V438.11L1276.37 410.253L1246.6 382.359V375.112H1254.27L1291.76 410.253Z" fill="#00AAFF"/>
<path opacity="0.6" d="M1246.61 410.253L1209.15 445.318H1201.46V438.11L1231.22 410.253L1201.46 382.359V375.112H1209.12L1246.61 410.253Z" fill="#00AAFF"/>
<path opacity="0.4" d="M1201.46 410.253L1164.01 445.318H1156.31V438.11L1186.08 410.253L1156.31 382.359V375.112H1163.98L1201.46 410.253Z" fill="#00AAFF"/>
<path opacity="0.2" d="M1156.31 410.253L1118.86 445.318H1111.17V438.11L1140.92 410.253L1111.17 382.359V375.112H1118.82L1156.31 410.253Z" fill="#00AAFF"/>
<path opacity="0.02" d="M1111.17 410.253L1073.71 445.318H1066.01V438.11L1095.78 410.253L1066.01 382.359V375.112H1073.67L1111.17 410.253Z" fill="#00AAFF"/>
<path d="M1562.64 410.253L1525.19 445.318H1517.5V438.11L1547.25 410.253L1517.5 382.359V375.112H1525.15L1562.64 410.253Z" fill="#00AAFF"/>
<path opacity="0.8" d="M1517.5 410.253L1480.04 445.318H1472.35V438.11L1502.1 410.253L1472.35 382.359V375.112H1480L1517.5 410.253Z" fill="#00AAFF"/>
<path opacity="0.6" d="M1472.35 410.253L1434.9 445.318H1427.2V438.11L1456.96 410.253L1427.2 382.359V375.112H1434.86L1472.35 410.253Z" fill="#00AAFF"/>
<path opacity="0.4" d="M1427.2 410.253L1389.74 445.318H1382.05V438.11L1411.81 410.253L1382.05 382.359V375.112H1389.71L1427.2 410.253Z" fill="#00AAFF"/>
<path opacity="0.2" d="M1382.05 410.253L1344.6 445.318H1336.91V438.11L1366.66 410.253L1336.91 382.359V375.112H1344.56L1382.05 410.253Z" fill="#00AAFF"/>
<path opacity="0.02" d="M1336.91 410.253L1299.45 445.318H1291.76V438.11L1321.51 410.253L1291.76 382.359V375.112H1299.41L1336.91 410.253Z" fill="#00AAFF"/>
<path d="M1788.38 410.253L1750.93 445.318H1743.23V438.11L1773 410.253L1743.23 382.359V375.112H1750.89L1788.38 410.253Z" fill="#00AAFF"/>
<path opacity="0.8" d="M1743.23 410.253L1705.78 445.318H1698.09V438.11L1727.84 410.253L1698.09 382.359V375.112H1705.74L1743.23 410.253Z" fill="#00AAFF"/>
<path opacity="0.6" d="M1698.09 410.253L1660.63 445.318H1652.94V438.11L1682.7 410.253L1652.94 382.359V375.112H1660.59L1698.09 410.253Z" fill="#00AAFF"/>
<path opacity="0.4" d="M1652.94 410.253L1615.49 445.318H1607.79V438.11L1637.55 410.253L1607.79 382.359V375.112H1615.45L1652.94 410.253Z" fill="#00AAFF"/>
<path opacity="0.2" d="M1607.79 410.253L1570.33 445.318H1562.64V438.11L1592.41 410.253L1562.64 382.359V375.112H1570.3L1607.79 410.253Z" fill="#00AAFF"/>
<path opacity="0.02" d="M1562.64 410.253L1525.19 445.318H1517.5V438.11L1547.25 410.253L1517.5 382.359V375.112H1525.15L1562.64 410.253Z" fill="#00AAFF"/>
<path d="M298.503 496.252L261.049 531.317H253.357V524.108L283.12 496.252L253.357 468.357V461.111H261.018L298.503 496.252Z" fill="#00AAFF"/>
<path opacity="0.8" d="M253.357 496.252L215.903 531.317H208.212V524.108L237.965 496.252L208.212 468.357V461.111H215.863L253.357 496.252Z" fill="#00AAFF"/>
<path opacity="0.6" d="M208.212 496.252L170.758 531.317H163.057V524.108L192.82 496.252L163.057 468.357V461.111H170.718L208.212 496.252Z" fill="#00AAFF"/>
<path opacity="0.4" d="M163.057 496.252L125.613 531.317H117.911V524.108L147.674 496.252L117.911 468.357V461.111H125.572L163.057 496.252Z" fill="#00AAFF"/>
<path opacity="0.2" d="M117.911 496.252L80.4572 531.317H72.766V524.108L102.529 496.252L72.766 468.357V461.111H80.4269L117.911 496.252Z" fill="#00AAFF"/>
<path opacity="0.02" d="M72.7661 496.252L35.3119 531.317H27.6207V524.108L57.3735 496.252L27.6207 468.357V461.111H35.2714L72.7661 496.252Z" fill="#00AAFF"/>
<path d="M524.239 496.252L486.785 531.317H479.094V524.108L508.857 496.252L479.094 468.357V461.111H486.755L524.239 496.252Z" fill="#00AAFF"/>
<path opacity="0.8" d="M479.094 496.252L441.64 531.317H433.949V524.108L463.712 496.252L433.949 468.357V461.111H441.61L479.094 496.252Z" fill="#00AAFF"/>
<path opacity="0.6" d="M433.949 496.252L396.495 531.317H388.804V524.108L418.556 496.252L388.804 468.357V461.111H396.454L433.949 496.252Z" fill="#00AAFF"/>
<path opacity="0.4" d="M388.804 496.252L351.349 531.317H343.648V524.108L373.411 496.252L343.648 468.357V461.111H351.309L388.804 496.252Z" fill="#00AAFF"/>
<path opacity="0.2" d="M343.648 496.252L306.194 531.317H298.503V524.108L328.266 496.252L298.503 468.357V461.111H306.164L343.648 496.252Z" fill="#00AAFF"/>
<path opacity="0.02" d="M298.503 496.252L261.049 531.317H253.357V524.108L283.12 496.252L253.357 468.357V461.111H261.018L298.503 496.252Z" fill="#00AAFF"/>
<path d="M749.986 496.252L712.532 531.317H704.831V524.108L734.594 496.252L704.831 468.357V461.111H712.492L749.986 496.252Z" fill="#00AAFF"/>
<path opacity="0.8" d="M704.831 496.252L667.377 531.317H659.686V524.108L689.448 496.252L659.686 468.357V461.111H667.346L704.831 496.252Z" fill="#00AAFF"/>
<path opacity="0.6" d="M659.686 496.252L622.231 531.317H614.54V524.108L644.303 496.252L614.54 468.357V461.111H622.201L659.686 496.252Z" fill="#00AAFF"/>
<path opacity="0.4" d="M614.54 496.252L577.086 531.317H569.395V524.108L599.148 496.252L569.395 468.357V461.111H577.046L614.54 496.252Z" fill="#00AAFF"/>
<path opacity="0.2" d="M569.395 496.252L531.941 531.317H524.239V524.108L554.002 496.252L524.239 468.357V461.111H531.9L569.395 496.252Z" fill="#00AAFF"/>
<path opacity="0.02" d="M524.239 496.252L486.785 531.317H479.094V524.108L508.857 496.252L479.094 468.357V461.111H486.755L524.239 496.252Z" fill="#00AAFF"/>
<path d="M975.723 496.252L938.269 531.317H930.578V524.108L960.33 496.252L930.578 468.357V461.111H938.228L975.723 496.252Z" fill="#00AAFF"/>
<path opacity="0.8" d="M930.578 496.252L893.124 531.317H885.422V524.108L915.185 496.252L885.422 468.357V461.111H893.083L930.578 496.252Z" fill="#00AAFF"/>
<path opacity="0.6" d="M885.422 496.252L847.968 531.317H840.277V524.108L870.04 496.252L840.277 468.357V461.111H847.938L885.422 496.252Z" fill="#00AAFF"/>
<path opacity="0.4" d="M840.277 496.252L802.823 531.317H795.132V524.108L824.895 496.252L795.132 468.357V461.111H802.792L840.277 496.252Z" fill="#00AAFF"/>
<path opacity="0.2" d="M795.132 496.252L757.678 531.317H749.986V524.108L779.739 496.252L749.986 468.357V461.111H757.637L795.132 496.252Z" fill="#00AAFF"/>
<path opacity="0.02" d="M749.986 496.252L712.532 531.317H704.831V524.108L734.594 496.252L704.831 468.357V461.111H712.492L749.986 496.252Z" fill="#00AAFF"/>
<path d="M1201.46 496.252L1164.01 531.317H1156.31V524.108L1186.08 496.252L1156.31 468.357V461.111H1163.98L1201.46 496.252Z" fill="#00AAFF"/>
<path opacity="0.8" d="M1156.31 496.252L1118.86 531.317H1111.17V524.108L1140.92 496.252L1111.17 468.357V461.111H1118.82L1156.31 496.252Z" fill="#00AAFF"/>
<path opacity="0.6" d="M1111.17 496.252L1073.72 531.317H1066.01V524.108L1095.78 496.252L1066.01 468.357V461.111H1073.67L1111.17 496.252Z" fill="#00AAFF"/>
<path opacity="0.4" d="M1066.01 496.252L1028.56 531.317H1020.87V524.108L1050.63 496.252L1020.87 468.357V461.111H1028.53L1066.01 496.252Z" fill="#00AAFF"/>
<path opacity="0.2" d="M1020.87 496.252L983.414 531.317H975.723V524.108L1005.49 496.252L975.723 468.357V461.111H983.384L1020.87 496.252Z" fill="#00AAFF"/>
<path opacity="0.02" d="M975.723 496.252L938.269 531.317H930.578V524.108L960.331 496.252L930.578 468.357V461.111H938.229L975.723 496.252Z" fill="#00AAFF"/>
<path d="M1427.2 496.252L1389.74 531.317H1382.05V524.108L1411.81 496.252L1382.05 468.357V461.111H1389.71L1427.2 496.252Z" fill="#00AAFF"/>
<path opacity="0.8" d="M1382.05 496.252L1344.6 531.317H1336.91V524.108L1366.66 496.252L1336.91 468.357V461.111H1344.56L1382.05 496.252Z" fill="#00AAFF"/>
<path opacity="0.6" d="M1336.91 496.252L1299.45 531.317H1291.76V524.108L1321.51 496.252L1291.76 468.357V461.111H1299.41L1336.91 496.252Z" fill="#00AAFF"/>
<path opacity="0.4" d="M1291.76 496.252L1254.31 531.317H1246.6V524.108L1276.37 496.252L1246.6 468.357V461.111H1254.27L1291.76 496.252Z" fill="#00AAFF"/>
<path opacity="0.2" d="M1246.61 496.252L1209.15 531.317H1201.46V524.108L1231.22 496.252L1201.46 468.357V461.111H1209.12L1246.61 496.252Z" fill="#00AAFF"/>
<path opacity="0.02" d="M1201.46 496.252L1164.01 531.317H1156.31V524.108L1186.08 496.252L1156.31 468.357V461.111H1163.98L1201.46 496.252Z" fill="#00AAFF"/>
<path d="M1652.94 496.252L1615.49 531.317H1607.79V524.108L1637.55 496.252L1607.79 468.357V461.111H1615.45L1652.94 496.252Z" fill="#00AAFF"/>
<path opacity="0.8" d="M1607.79 496.252L1570.33 531.317H1562.64V524.108L1592.41 496.252L1562.64 468.357V461.111H1570.3L1607.79 496.252Z" fill="#00AAFF"/>
<path opacity="0.6" d="M1562.64 496.252L1525.19 531.317H1517.5V524.108L1547.25 496.252L1517.5 468.357V461.111H1525.15L1562.64 496.252Z" fill="#00AAFF"/>
<path opacity="0.4" d="M1517.5 496.252L1480.04 531.317H1472.35V524.108L1502.1 496.252L1472.35 468.357V461.111H1480L1517.5 496.252Z" fill="#00AAFF"/>
<path opacity="0.2" d="M1472.35 496.252L1434.9 531.317H1427.2V524.108L1456.96 496.252L1427.2 468.357V461.111H1434.86L1472.35 496.252Z" fill="#00AAFF"/>
<path opacity="0.02" d="M1427.2 496.252L1389.74 531.317H1382.05V524.108L1411.81 496.252L1382.05 468.357V461.111H1389.71L1427.2 496.252Z" fill="#00AAFF"/>
<path d="M1878.68 496.252L1841.23 531.317H1833.52V524.108L1863.29 496.252L1833.52 468.357V461.111H1841.19L1878.68 496.252Z" fill="#00AAFF"/>
<path opacity="0.8" d="M1833.52 496.252L1796.08 531.317H1788.38V524.108L1818.14 496.252L1788.38 468.357V461.111H1796.04L1833.52 496.252Z" fill="#00AAFF"/>
<path opacity="0.6" d="M1788.38 496.252L1750.93 531.317H1743.23V524.108L1773 496.252L1743.23 468.357V461.111H1750.89L1788.38 496.252Z" fill="#00AAFF"/>
<path opacity="0.4" d="M1743.23 496.252L1705.78 531.317H1698.09V524.108L1727.84 496.252L1698.09 468.357V461.111H1705.74L1743.23 496.252Z" fill="#00AAFF"/>
<path opacity="0.2" d="M1698.09 496.252L1660.63 531.317H1652.94V524.108L1682.7 496.252L1652.94 468.357V461.111H1660.59L1698.09 496.252Z" fill="#00AAFF"/>
<path opacity="0.02" d="M1652.94 496.252L1615.49 531.317H1607.79V524.108L1637.55 496.252L1607.79 468.357V461.111H1615.45L1652.94 496.252Z" fill="#00AAFF"/>
<path d="M208.212 582.25L170.758 617.324H163.057V610.116L192.82 582.25L163.057 554.365V547.118H170.718L208.212 582.25Z" fill="#00AAFF"/>
<path opacity="0.8" d="M163.057 582.25L125.613 617.324H117.911V610.116L147.674 582.25L117.911 554.365V547.118H125.572L163.057 582.25Z" fill="#00AAFF"/>
<path opacity="0.6" d="M117.911 582.25L80.4572 617.324H72.766V610.116L102.529 582.25L72.766 554.365V547.118H80.4269L117.911 582.25Z" fill="#00AAFF"/>
<path opacity="0.4" d="M72.766 582.25L35.3119 617.324H27.6207V610.116L57.3735 582.25L27.6207 554.365V547.118H35.2714L72.766 582.25Z" fill="#00AAFF"/>
<path opacity="0.2" d="M27.6207 582.25L-9.83339 617.324H-17.5246V610.116L12.2282 582.25L-17.5246 554.365V547.118H-9.87387L27.6207 582.25Z" fill="#00AAFF"/>
<path d="M433.949 582.25L396.495 617.324H388.804V610.116L418.556 582.25L388.804 554.365V547.118H396.454L433.949 582.25Z" fill="#00AAFF"/>
<path opacity="0.8" d="M388.803 582.25L351.349 617.324H343.648V610.116L373.411 582.25L343.648 554.365V547.118H351.309L388.803 582.25Z" fill="#00AAFF"/>
<path opacity="0.6" d="M343.648 582.25L306.194 617.324H298.503V610.116L328.266 582.25L298.503 554.365V547.118H306.164L343.648 582.25Z" fill="#00AAFF"/>
<path opacity="0.4" d="M298.503 582.25L261.049 617.324H253.357V610.116L283.12 582.25L253.357 554.365V547.118H261.018L298.503 582.25Z" fill="#00AAFF"/>
<path opacity="0.2" d="M253.357 582.25L215.903 617.324H208.212V610.116L237.965 582.25L208.212 554.365V547.118H215.863L253.357 582.25Z" fill="#00AAFF"/>
<path opacity="0.02" d="M208.212 582.25L170.758 617.324H163.057V610.116L192.82 582.25L163.057 554.365V547.118H170.718L208.212 582.25Z" fill="#00AAFF"/>
<path d="M659.686 582.25L622.231 617.324H614.54V610.116L644.303 582.25L614.54 554.365V547.118H622.201L659.686 582.25Z" fill="#00AAFF"/>
<path opacity="0.8" d="M614.54 582.25L577.086 617.324H569.395V610.116L599.148 582.25L569.395 554.365V547.118H577.046L614.54 582.25Z" fill="#00AAFF"/>
<path opacity="0.6" d="M569.395 582.25L531.941 617.324H524.239V610.116L554.002 582.25L524.239 554.365V547.118H531.9L569.395 582.25Z" fill="#00AAFF"/>
<path opacity="0.4" d="M524.239 582.25L486.785 617.324H479.094V610.116L508.857 582.25L479.094 554.365V547.118H486.755L524.239 582.25Z" fill="#00AAFF"/>
<path opacity="0.2" d="M479.094 582.25L441.64 617.324H433.949V610.116L463.712 582.25L433.949 554.365V547.118H441.61L479.094 582.25Z" fill="#00AAFF"/>
<path opacity="0.02" d="M433.949 582.25L396.495 617.324H388.803V610.116L418.556 582.25L388.803 554.365V547.118H396.454L433.949 582.25Z" fill="#00AAFF"/>
<path d="M885.422 582.25L847.968 617.324H840.277V610.116L870.04 582.25L840.277 554.365V547.118H847.938L885.422 582.25Z" fill="#00AAFF"/>
<path opacity="0.8" d="M840.277 582.25L802.823 617.324H795.132V610.116L824.895 582.25L795.132 554.365V547.118H802.792L840.277 582.25Z" fill="#00AAFF"/>
<path opacity="0.6" d="M795.132 582.25L757.678 617.324H749.986V610.116L779.739 582.25L749.986 554.365V547.118H757.637L795.132 582.25Z" fill="#00AAFF"/>
<path opacity="0.4" d="M749.986 582.25L712.532 617.324H704.831V610.116L734.594 582.25L704.831 554.365V547.118H712.492L749.986 582.25Z" fill="#00AAFF"/>
<path opacity="0.2" d="M704.831 582.25L667.377 617.324H659.686V610.116L689.448 582.25L659.686 554.365V547.118H667.346L704.831 582.25Z" fill="#00AAFF"/>
<path opacity="0.02" d="M659.686 582.25L622.231 617.324H614.54V610.116L644.303 582.25L614.54 554.365V547.118H622.201L659.686 582.25Z" fill="#00AAFF"/>
<path d="M1111.17 582.25L1073.71 617.324H1066.01V610.116L1095.78 582.25L1066.01 554.365V547.118H1073.67L1111.17 582.25Z" fill="#00AAFF"/>
<path opacity="0.8" d="M1066.01 582.25L1028.56 617.324H1020.87V610.116L1050.63 582.25L1020.87 554.365V547.118H1028.53L1066.01 582.25Z" fill="#00AAFF"/>
<path opacity="0.6" d="M1020.87 582.25L983.414 617.324H975.723V610.116L1005.49 582.25L975.723 554.365V547.118H983.384L1020.87 582.25Z" fill="#00AAFF"/>
<path opacity="0.4" d="M975.723 582.25L938.269 617.324H930.578V610.116L960.33 582.25L930.578 554.365V547.118H938.228L975.723 582.25Z" fill="#00AAFF"/>
<path opacity="0.2" d="M930.578 582.25L893.124 617.324H885.422V610.116L915.185 582.25L885.422 554.365V547.118H893.083L930.578 582.25Z" fill="#00AAFF"/>
<path opacity="0.02" d="M885.422 582.25L847.968 617.324H840.277V610.116L870.04 582.25L840.277 554.365V547.118H847.938L885.422 582.25Z" fill="#00AAFF"/>
<path d="M1336.91 582.25L1299.45 617.324H1291.76V610.116L1321.51 582.25L1291.76 554.365V547.118H1299.41L1336.91 582.25Z" fill="#00AAFF"/>
<path opacity="0.8" d="M1291.76 582.25L1254.31 617.324H1246.6V610.116L1276.37 582.25L1246.6 554.365V547.118H1254.27L1291.76 582.25Z" fill="#00AAFF"/>
<path opacity="0.6" d="M1246.61 582.25L1209.15 617.324H1201.46V610.116L1231.22 582.25L1201.46 554.365V547.118H1209.12L1246.61 582.25Z" fill="#00AAFF"/>
<path opacity="0.4" d="M1201.46 582.25L1164.01 617.324H1156.31V610.116L1186.08 582.25L1156.31 554.365V547.118H1163.98L1201.46 582.25Z" fill="#00AAFF"/>
<path opacity="0.2" d="M1156.31 582.25L1118.86 617.324H1111.17V610.116L1140.92 582.25L1111.17 554.365V547.118H1118.82L1156.31 582.25Z" fill="#00AAFF"/>
<path opacity="0.02" d="M1111.17 582.25L1073.71 617.324H1066.01V610.116L1095.78 582.25L1066.01 554.365V547.118H1073.67L1111.17 582.25Z" fill="#00AAFF"/>
<path d="M1562.64 582.25L1525.19 617.324H1517.5V610.116L1547.25 582.25L1517.5 554.365V547.118H1525.15L1562.64 582.25Z" fill="#00AAFF"/>
<path opacity="0.8" d="M1517.5 582.25L1480.04 617.324H1472.35V610.116L1502.1 582.25L1472.35 554.365V547.118H1480L1517.5 582.25Z" fill="#00AAFF"/>
<path opacity="0.6" d="M1472.35 582.25L1434.9 617.324H1427.2V610.116L1456.96 582.25L1427.2 554.365V547.118H1434.86L1472.35 582.25Z" fill="#00AAFF"/>
<path opacity="0.4" d="M1427.2 582.25L1389.74 617.324H1382.05V610.116L1411.81 582.25L1382.05 554.365V547.118H1389.71L1427.2 582.25Z" fill="#00AAFF"/>
<path opacity="0.2" d="M1382.05 582.25L1344.6 617.324H1336.91V610.116L1366.66 582.25L1336.91 554.365V547.118H1344.56L1382.05 582.25Z" fill="#00AAFF"/>
<path opacity="0.02" d="M1336.91 582.25L1299.45 617.324H1291.76V610.116L1321.51 582.25L1291.76 554.365V547.118H1299.41L1336.91 582.25Z" fill="#00AAFF"/>
<path d="M1788.38 582.25L1750.93 617.324H1743.23V610.116L1773 582.25L1743.23 554.365V547.118H1750.89L1788.38 582.25Z" fill="#00AAFF"/>
<path opacity="0.8" d="M1743.23 582.25L1705.78 617.324H1698.09V610.116L1727.84 582.25L1698.09 554.365V547.118H1705.74L1743.23 582.25Z" fill="#00AAFF"/>
<path opacity="0.6" d="M1698.09 582.25L1660.63 617.324H1652.94V610.116L1682.7 582.25L1652.94 554.365V547.118H1660.59L1698.09 582.25Z" fill="#00AAFF"/>
<path opacity="0.4" d="M1652.94 582.25L1615.49 617.324H1607.79V610.116L1637.55 582.25L1607.79 554.365V547.118H1615.45L1652.94 582.25Z" fill="#00AAFF"/>
<path opacity="0.2" d="M1607.79 582.25L1570.33 617.324H1562.64V610.116L1592.41 582.25L1562.64 554.365V547.118H1570.3L1607.79 582.25Z" fill="#00AAFF"/>
<path opacity="0.02" d="M1562.64 582.25L1525.19 617.324H1517.5V610.116L1547.25 582.25L1517.5 554.365V547.118H1525.15L1562.64 582.25Z" fill="#00AAFF"/>
<path d="M298.503 668.257L261.049 703.323H253.357V696.114L283.12 668.257L253.357 640.363V633.117H261.018L298.503 668.257Z" fill="#00AAFF"/>
<path opacity="0.8" d="M253.357 668.257L215.903 703.323H208.212V696.114L237.965 668.257L208.212 640.363V633.117H215.863L253.357 668.257Z" fill="#00AAFF"/>
<path opacity="0.6" d="M208.212 668.257L170.758 703.323H163.057V696.114L192.82 668.257L163.057 640.363V633.117H170.718L208.212 668.257Z" fill="#00AAFF"/>
<path opacity="0.4" d="M163.057 668.257L125.613 703.323H117.911V696.114L147.674 668.257L117.911 640.363V633.117H125.572L163.057 668.257Z" fill="#00AAFF"/>
<path opacity="0.2" d="M117.911 668.257L80.4572 703.323H72.766V696.114L102.529 668.257L72.766 640.363V633.117H80.4269L117.911 668.257Z" fill="#00AAFF"/>
<path opacity="0.02" d="M72.7661 668.257L35.3119 703.323H27.6207V696.114L57.3735 668.257L27.6207 640.363V633.116H35.2714L72.7661 668.257Z" fill="#00AAFF"/>
<path d="M524.239 668.257L486.785 703.323H479.094V696.114L508.857 668.257L479.094 640.363V633.117H486.755L524.239 668.257Z" fill="#00AAFF"/>
<path opacity="0.8" d="M479.094 668.257L441.64 703.323H433.949V696.114L463.712 668.257L433.949 640.363V633.117H441.61L479.094 668.257Z" fill="#00AAFF"/>
<path opacity="0.6" d="M433.949 668.257L396.495 703.323H388.804V696.114L418.556 668.257L388.804 640.363V633.117H396.454L433.949 668.257Z" fill="#00AAFF"/>
<path opacity="0.4" d="M388.804 668.257L351.349 703.323H343.648V696.114L373.411 668.257L343.648 640.363V633.117H351.309L388.804 668.257Z" fill="#00AAFF"/>
<path opacity="0.2" d="M343.648 668.257L306.194 703.323H298.503V696.114L328.266 668.257L298.503 640.363V633.117H306.164L343.648 668.257Z" fill="#00AAFF"/>
<path opacity="0.02" d="M298.503 668.257L261.049 703.323H253.357V696.114L283.12 668.257L253.357 640.363V633.116H261.018L298.503 668.257Z" fill="#00AAFF"/>
<path d="M749.986 668.257L712.532 703.323H704.831V696.114L734.594 668.257L704.831 640.363V633.117H712.492L749.986 668.257Z" fill="#00AAFF"/>
<path opacity="0.8" d="M704.831 668.257L667.377 703.323H659.686V696.114L689.448 668.257L659.686 640.363V633.117H667.346L704.831 668.257Z" fill="#00AAFF"/>
<path opacity="0.6" d="M659.686 668.257L622.231 703.323H614.54V696.114L644.303 668.257L614.54 640.363V633.117H622.201L659.686 668.257Z" fill="#00AAFF"/>
<path opacity="0.4" d="M614.54 668.257L577.086 703.323H569.395V696.114L599.148 668.257L569.395 640.363V633.117H577.046L614.54 668.257Z" fill="#00AAFF"/>
<path opacity="0.2" d="M569.395 668.257L531.941 703.323H524.239V696.114L554.002 668.257L524.239 640.363V633.117H531.9L569.395 668.257Z" fill="#00AAFF"/>
<path opacity="0.02" d="M524.239 668.257L486.785 703.323H479.094V696.114L508.857 668.257L479.094 640.363V633.116H486.755L524.239 668.257Z" fill="#00AAFF"/>
<path d="M975.723 668.257L938.269 703.323H930.578V696.114L960.33 668.257L930.578 640.363V633.117H938.228L975.723 668.257Z" fill="#00AAFF"/>
<path opacity="0.8" d="M930.578 668.257L893.124 703.323H885.422V696.114L915.185 668.257L885.422 640.363V633.117H893.083L930.578 668.257Z" fill="#00AAFF"/>
<path opacity="0.6" d="M885.422 668.257L847.968 703.323H840.277V696.114L870.04 668.257L840.277 640.363V633.117H847.938L885.422 668.257Z" fill="#00AAFF"/>
<path opacity="0.4" d="M840.277 668.257L802.823 703.323H795.132V696.114L824.895 668.257L795.132 640.363V633.117H802.792L840.277 668.257Z" fill="#00AAFF"/>
<path opacity="0.2" d="M795.132 668.257L757.678 703.323H749.986V696.114L779.739 668.257L749.986 640.363V633.117H757.637L795.132 668.257Z" fill="#00AAFF"/>
<path opacity="0.02" d="M749.986 668.257L712.532 703.323H704.831V696.114L734.594 668.257L704.831 640.363V633.116H712.492L749.986 668.257Z" fill="#00AAFF"/>
<path d="M1201.46 668.257L1164.01 703.323H1156.31V696.114L1186.08 668.257L1156.31 640.363V633.117H1163.98L1201.46 668.257Z" fill="#00AAFF"/>
<path opacity="0.8" d="M1156.31 668.257L1118.86 703.323H1111.17V696.114L1140.92 668.257L1111.17 640.363V633.117H1118.82L1156.31 668.257Z" fill="#00AAFF"/>
<path opacity="0.6" d="M1111.17 668.257L1073.72 703.323H1066.01V696.114L1095.78 668.257L1066.01 640.363V633.117H1073.67L1111.17 668.257Z" fill="#00AAFF"/>
<path opacity="0.4" d="M1066.01 668.257L1028.56 703.323H1020.87V696.114L1050.63 668.257L1020.87 640.363V633.117H1028.53L1066.01 668.257Z" fill="#00AAFF"/>
<path opacity="0.2" d="M1020.87 668.257L983.414 703.323H975.723V696.114L1005.49 668.257L975.723 640.363V633.117H983.384L1020.87 668.257Z" fill="#00AAFF"/>
<path opacity="0.02" d="M975.723 668.257L938.269 703.323H930.578V696.114L960.331 668.257L930.578 640.363V633.116H938.229L975.723 668.257Z" fill="#00AAFF"/>
<path d="M1427.2 668.257L1389.74 703.323H1382.05V696.114L1411.81 668.257L1382.05 640.363V633.117H1389.71L1427.2 668.257Z" fill="#00AAFF"/>
<path opacity="0.8" d="M1382.05 668.257L1344.6 703.323H1336.91V696.114L1366.66 668.257L1336.91 640.363V633.117H1344.56L1382.05 668.257Z" fill="#00AAFF"/>
<path opacity="0.6" d="M1336.91 668.257L1299.45 703.323H1291.76V696.114L1321.51 668.257L1291.76 640.363V633.117H1299.41L1336.91 668.257Z" fill="#00AAFF"/>
<path opacity="0.4" d="M1291.76 668.257L1254.31 703.323H1246.6V696.114L1276.37 668.257L1246.6 640.363V633.117H1254.27L1291.76 668.257Z" fill="#00AAFF"/>
<path opacity="0.2" d="M1246.61 668.257L1209.15 703.323H1201.46V696.114L1231.22 668.257L1201.46 640.363V633.117H1209.12L1246.61 668.257Z" fill="#00AAFF"/>
<path opacity="0.02" d="M1201.46 668.257L1164.01 703.323H1156.31V696.114L1186.08 668.257L1156.31 640.363V633.116H1163.98L1201.46 668.257Z" fill="#00AAFF"/>
<path d="M1652.94 668.257L1615.49 703.323H1607.79V696.114L1637.55 668.257L1607.79 640.363V633.117H1615.45L1652.94 668.257Z" fill="#00AAFF"/>
<path opacity="0.8" d="M1607.79 668.257L1570.33 703.323H1562.64V696.114L1592.41 668.257L1562.64 640.363V633.117H1570.3L1607.79 668.257Z" fill="#00AAFF"/>
<path opacity="0.6" d="M1562.64 668.257L1525.19 703.323H1517.5V696.114L1547.25 668.257L1517.5 640.363V633.117H1525.15L1562.64 668.257Z" fill="#00AAFF"/>
<path opacity="0.4" d="M1517.5 668.257L1480.04 703.323H1472.35V696.114L1502.1 668.257L1472.35 640.363V633.117H1480L1517.5 668.257Z" fill="#00AAFF"/>
<path opacity="0.2" d="M1472.35 668.257L1434.9 703.323H1427.2V696.114L1456.96 668.257L1427.2 640.363V633.117H1434.86L1472.35 668.257Z" fill="#00AAFF"/>
<path opacity="0.02" d="M1427.2 668.257L1389.74 703.323H1382.05V696.114L1411.81 668.257L1382.05 640.363V633.116H1389.71L1427.2 668.257Z" fill="#00AAFF"/>
<path d="M1878.68 668.257L1841.23 703.323H1833.52V696.114L1863.29 668.257L1833.52 640.363V633.117H1841.19L1878.68 668.257Z" fill="#00AAFF"/>
<path opacity="0.8" d="M1833.52 668.257L1796.08 703.323H1788.38V696.114L1818.14 668.257L1788.38 640.363V633.117H1796.04L1833.52 668.257Z" fill="#00AAFF"/>
<path opacity="0.6" d="M1788.38 668.257L1750.93 703.323H1743.23V696.114L1773 668.257L1743.23 640.363V633.117H1750.89L1788.38 668.257Z" fill="#00AAFF"/>
<path opacity="0.4" d="M1743.23 668.257L1705.78 703.323H1698.09V696.114L1727.84 668.257L1698.09 640.363V633.117H1705.74L1743.23 668.257Z" fill="#00AAFF"/>
<path opacity="0.2" d="M1698.09 668.257L1660.63 703.323H1652.94V696.114L1682.7 668.257L1652.94 640.363V633.117H1660.59L1698.09 668.257Z" fill="#00AAFF"/>
<path opacity="0.02" d="M1652.94 668.257L1615.49 703.323H1607.79V696.114L1637.55 668.257L1607.79 640.363V633.116H1615.45L1652.94 668.257Z" fill="#00AAFF"/>
<path d="M208.212 754.256L170.758 789.33H163.057V782.112L192.82 754.256L163.057 726.371V719.124H170.718L208.212 754.256Z" fill="#00AAFF"/>
<path opacity="0.8" d="M163.057 754.256L125.613 789.33H117.911V782.112L147.674 754.256L117.911 726.371V719.124H125.572L163.057 754.256Z" fill="#00AAFF"/>
<path opacity="0.6" d="M117.911 754.256L80.4572 789.33H72.766V782.112L102.529 754.256L72.766 726.371V719.124H80.4269L117.911 754.256Z" fill="#00AAFF"/>
<path opacity="0.4" d="M72.766 754.256L35.3119 789.33H27.6207V782.112L57.3735 754.256L27.6207 726.371V719.124H35.2714L72.766 754.256Z" fill="#00AAFF"/>
<path opacity="0.2" d="M27.6207 754.256L-9.83339 789.33H-17.5246V782.112L12.2282 754.256L-17.5246 726.371V719.124H-9.87387L27.6207 754.256Z" fill="#00AAFF"/>
<path d="M433.949 754.256L396.495 789.33H388.804V782.112L418.556 754.256L388.804 726.371V719.124H396.454L433.949 754.256Z" fill="#00AAFF"/>
<path opacity="0.8" d="M388.803 754.256L351.349 789.33H343.648V782.112L373.411 754.256L343.648 726.371V719.124H351.309L388.803 754.256Z" fill="#00AAFF"/>
<path opacity="0.6" d="M343.648 754.256L306.194 789.33H298.503V782.112L328.266 754.256L298.503 726.371V719.124H306.164L343.648 754.256Z" fill="#00AAFF"/>
<path opacity="0.4" d="M298.503 754.256L261.049 789.33H253.357V782.112L283.12 754.256L253.357 726.371V719.124H261.018L298.503 754.256Z" fill="#00AAFF"/>
<path opacity="0.2" d="M253.357 754.256L215.903 789.33H208.212V782.112L237.965 754.256L208.212 726.371V719.124H215.863L253.357 754.256Z" fill="#00AAFF"/>
<path opacity="0.02" d="M208.212 754.256L170.758 789.33H163.057V782.112L192.82 754.256L163.057 726.371V719.124H170.718L208.212 754.256Z" fill="#00AAFF"/>
<path d="M659.686 754.256L622.231 789.33H614.54V782.112L644.303 754.256L614.54 726.371V719.124H622.201L659.686 754.256Z" fill="#00AAFF"/>
<path opacity="0.8" d="M614.54 754.256L577.086 789.33H569.395V782.112L599.148 754.256L569.395 726.371V719.124H577.046L614.54 754.256Z" fill="#00AAFF"/>
<path opacity="0.6" d="M569.395 754.256L531.941 789.33H524.239V782.112L554.002 754.256L524.239 726.371V719.124H531.9L569.395 754.256Z" fill="#00AAFF"/>
<path opacity="0.4" d="M524.239 754.256L486.785 789.33H479.094V782.112L508.857 754.256L479.094 726.371V719.124H486.755L524.239 754.256Z" fill="#00AAFF"/>
<path opacity="0.2" d="M479.094 754.256L441.64 789.33H433.949V782.112L463.712 754.256L433.949 726.371V719.124H441.61L479.094 754.256Z" fill="#00AAFF"/>
<path opacity="0.02" d="M433.949 754.256L396.495 789.33H388.803V782.112L418.556 754.256L388.803 726.371V719.124H396.454L433.949 754.256Z" fill="#00AAFF"/>
<path d="M885.422 754.256L847.968 789.33H840.277V782.112L870.04 754.256L840.277 726.371V719.124H847.938L885.422 754.256Z" fill="#00AAFF"/>
<path opacity="0.8" d="M840.277 754.256L802.823 789.33H795.132V782.112L824.895 754.256L795.132 726.371V719.124H802.792L840.277 754.256Z" fill="#00AAFF"/>
<path opacity="0.6" d="M795.132 754.256L757.678 789.33H749.986V782.112L779.739 754.256L749.986 726.371V719.124H757.637L795.132 754.256Z" fill="#00AAFF"/>
<path opacity="0.4" d="M749.986 754.256L712.532 789.33H704.831V782.112L734.594 754.256L704.831 726.371V719.124H712.492L749.986 754.256Z" fill="#00AAFF"/>
<path opacity="0.2" d="M704.831 754.256L667.377 789.33H659.686V782.112L689.448 754.256L659.686 726.371V719.124H667.346L704.831 754.256Z" fill="#00AAFF"/>
<path opacity="0.02" d="M659.686 754.256L622.231 789.33H614.54V782.112L644.303 754.256L614.54 726.371V719.124H622.201L659.686 754.256Z" fill="#00AAFF"/>
<path d="M1111.17 754.256L1073.71 789.33H1066.01V782.112L1095.78 754.256L1066.01 726.371V719.124H1073.67L1111.17 754.256Z" fill="#00AAFF"/>
<path opacity="0.8" d="M1066.01 754.256L1028.56 789.33H1020.87V782.112L1050.63 754.256L1020.87 726.371V719.124H1028.53L1066.01 754.256Z" fill="#00AAFF"/>
<path opacity="0.6" d="M1020.87 754.256L983.414 789.33H975.723V782.112L1005.49 754.256L975.723 726.371V719.124H983.384L1020.87 754.256Z" fill="#00AAFF"/>
<path opacity="0.4" d="M975.723 754.256L938.269 789.33H930.578V782.112L960.33 754.256L930.578 726.371V719.124H938.228L975.723 754.256Z" fill="#00AAFF"/>
<path opacity="0.2" d="M930.578 754.256L893.124 789.33H885.422V782.112L915.185 754.256L885.422 726.371V719.124H893.083L930.578 754.256Z" fill="#00AAFF"/>
<path opacity="0.02" d="M885.422 754.256L847.968 789.33H840.277V782.112L870.04 754.256L840.277 726.371V719.124H847.938L885.422 754.256Z" fill="#00AAFF"/>
<path d="M1336.91 754.256L1299.45 789.33H1291.76V782.112L1321.51 754.256L1291.76 726.371V719.124H1299.41L1336.91 754.256Z" fill="#00AAFF"/>
<path opacity="0.8" d="M1291.76 754.256L1254.31 789.33H1246.6V782.112L1276.37 754.256L1246.6 726.371V719.124H1254.27L1291.76 754.256Z" fill="#00AAFF"/>
<path opacity="0.6" d="M1246.61 754.256L1209.15 789.33H1201.46V782.112L1231.22 754.256L1201.46 726.371V719.124H1209.12L1246.61 754.256Z" fill="#00AAFF"/>
<path opacity="0.4" d="M1201.46 754.256L1164.01 789.33H1156.31V782.112L1186.08 754.256L1156.31 726.371V719.124H1163.98L1201.46 754.256Z" fill="#00AAFF"/>
<path opacity="0.2" d="M1156.31 754.256L1118.86 789.33H1111.17V782.112L1140.92 754.256L1111.17 726.371V719.124H1118.82L1156.31 754.256Z" fill="#00AAFF"/>
<path opacity="0.02" d="M1111.17 754.256L1073.71 789.33H1066.01V782.112L1095.78 754.256L1066.01 726.371V719.124H1073.67L1111.17 754.256Z" fill="#00AAFF"/>
<path d="M1562.64 754.256L1525.19 789.33H1517.5V782.112L1547.25 754.256L1517.5 726.371V719.124H1525.15L1562.64 754.256Z" fill="#00AAFF"/>
<path opacity="0.8" d="M1517.5 754.256L1480.04 789.33H1472.35V782.112L1502.1 754.256L1472.35 726.371V719.124H1480L1517.5 754.256Z" fill="#00AAFF"/>
<path opacity="0.6" d="M1472.35 754.256L1434.9 789.33H1427.2V782.112L1456.96 754.256L1427.2 726.371V719.124H1434.86L1472.35 754.256Z" fill="#00AAFF"/>
<path opacity="0.4" d="M1427.2 754.256L1389.74 789.33H1382.05V782.112L1411.81 754.256L1382.05 726.371V719.124H1389.71L1427.2 754.256Z" fill="#00AAFF"/>
<path opacity="0.2" d="M1382.05 754.256L1344.6 789.33H1336.91V782.112L1366.66 754.256L1336.91 726.371V719.124H1344.56L1382.05 754.256Z" fill="#00AAFF"/>
<path opacity="0.02" d="M1336.91 754.256L1299.45 789.33H1291.76V782.112L1321.51 754.256L1291.76 726.371V719.124H1299.41L1336.91 754.256Z" fill="#00AAFF"/>
<path d="M1788.38 754.256L1750.93 789.33H1743.23V782.112L1773 754.256L1743.23 726.371V719.124H1750.89L1788.38 754.256Z" fill="#00AAFF"/>
<path opacity="0.8" d="M1743.23 754.256L1705.78 789.33H1698.09V782.112L1727.84 754.256L1698.09 726.371V719.124H1705.74L1743.23 754.256Z" fill="#00AAFF"/>
<path opacity="0.6" d="M1698.09 754.256L1660.63 789.33H1652.94V782.112L1682.7 754.256L1652.94 726.371V719.124H1660.59L1698.09 754.256Z" fill="#00AAFF"/>
<path opacity="0.4" d="M1652.94 754.256L1615.49 789.33H1607.79V782.112L1637.55 754.256L1607.79 726.371V719.124H1615.45L1652.94 754.256Z" fill="#00AAFF"/>
<path opacity="0.2" d="M1607.79 754.256L1570.33 789.33H1562.64V782.112L1592.41 754.256L1562.64 726.371V719.124H1570.3L1607.79 754.256Z" fill="#00AAFF"/>
<path opacity="0.02" d="M1562.64 754.256L1525.19 789.33H1517.5V782.112L1547.25 754.256L1517.5 726.371V719.124H1525.15L1562.64 754.256Z" fill="#00AAFF"/>
<path d="M298.503 840.263L261.049 875.329H253.357V868.12L283.12 840.263L253.357 812.369V805.122H261.018L298.503 840.263Z" fill="#00AAFF"/>
<path opacity="0.8" d="M253.357 840.263L215.903 875.329H208.212V868.12L237.965 840.263L208.212 812.369V805.122H215.863L253.357 840.263Z" fill="#00AAFF"/>
<path opacity="0.6" d="M208.212 840.263L170.758 875.329H163.057V868.12L192.82 840.263L163.057 812.369V805.122H170.718L208.212 840.263Z" fill="#00AAFF"/>
<path opacity="0.4" d="M163.057 840.263L125.613 875.329H117.911V868.12L147.674 840.263L117.911 812.369V805.122H125.572L163.057 840.263Z" fill="#00AAFF"/>
<path opacity="0.2" d="M117.911 840.263L80.4572 875.329H72.766V868.12L102.529 840.263L72.766 812.369V805.122H80.4269L117.911 840.263Z" fill="#00AAFF"/>
<path opacity="0.02" d="M72.7661 840.263L35.3119 875.329H27.6207V868.12L57.3735 840.263L27.6207 812.369V805.122H35.2714L72.7661 840.263Z" fill="#00AAFF"/>
<path d="M524.239 840.263L486.785 875.329H479.094V868.12L508.857 840.263L479.094 812.369V805.122H486.755L524.239 840.263Z" fill="#00AAFF"/>
<path opacity="0.8" d="M479.094 840.263L441.64 875.329H433.949V868.12L463.712 840.263L433.949 812.369V805.122H441.61L479.094 840.263Z" fill="#00AAFF"/>
<path opacity="0.6" d="M433.949 840.263L396.495 875.329H388.804V868.12L418.556 840.263L388.804 812.369V805.122H396.454L433.949 840.263Z" fill="#00AAFF"/>
<path opacity="0.4" d="M388.804 840.263L351.349 875.329H343.648V868.12L373.411 840.263L343.648 812.369V805.122H351.309L388.804 840.263Z" fill="#00AAFF"/>
<path opacity="0.2" d="M343.648 840.263L306.194 875.329H298.503V868.12L328.266 840.263L298.503 812.369V805.122H306.164L343.648 840.263Z" fill="#00AAFF"/>
<path opacity="0.02" d="M298.503 840.263L261.049 875.329H253.357V868.12L283.12 840.263L253.357 812.369V805.122H261.018L298.503 840.263Z" fill="#00AAFF"/>
<path d="M749.986 840.263L712.532 875.329H704.831V868.12L734.594 840.263L704.831 812.369V805.122H712.492L749.986 840.263Z" fill="#00AAFF"/>
<path opacity="0.8" d="M704.831 840.263L667.377 875.329H659.686V868.12L689.448 840.263L659.686 812.369V805.122H667.346L704.831 840.263Z" fill="#00AAFF"/>
<path opacity="0.6" d="M659.686 840.263L622.231 875.329H614.54V868.12L644.303 840.263L614.54 812.369V805.122H622.201L659.686 840.263Z" fill="#00AAFF"/>
<path opacity="0.4" d="M614.54 840.263L577.086 875.329H569.395V868.12L599.148 840.263L569.395 812.369V805.122H577.046L614.54 840.263Z" fill="#00AAFF"/>
<path opacity="0.2" d="M569.395 840.263L531.941 875.329H524.239V868.12L554.002 840.263L524.239 812.369V805.122H531.9L569.395 840.263Z" fill="#00AAFF"/>
<path opacity="0.02" d="M524.239 840.263L486.785 875.329H479.094V868.12L508.857 840.263L479.094 812.369V805.122H486.755L524.239 840.263Z" fill="#00AAFF"/>
<path d="M975.723 840.263L938.269 875.329H930.578V868.12L960.33 840.263L930.578 812.369V805.122H938.228L975.723 840.263Z" fill="#00AAFF"/>
<path opacity="0.8" d="M930.578 840.263L893.124 875.329H885.422V868.12L915.185 840.263L885.422 812.369V805.122H893.083L930.578 840.263Z" fill="#00AAFF"/>
<path opacity="0.6" d="M885.422 840.263L847.968 875.329H840.277V868.12L870.04 840.263L840.277 812.369V805.122H847.938L885.422 840.263Z" fill="#00AAFF"/>
<path opacity="0.4" d="M840.277 840.263L802.823 875.329H795.132V868.12L824.895 840.263L795.132 812.369V805.122H802.792L840.277 840.263Z" fill="#00AAFF"/>
<path opacity="0.2" d="M795.132 840.263L757.678 875.329H749.986V868.12L779.739 840.263L749.986 812.369V805.122H757.637L795.132 840.263Z" fill="#00AAFF"/>
<path opacity="0.02" d="M749.986 840.263L712.532 875.329H704.831V868.12L734.594 840.263L704.831 812.369V805.122H712.492L749.986 840.263Z" fill="#00AAFF"/>
<path d="M1201.46 840.263L1164.01 875.329H1156.31V868.12L1186.08 840.263L1156.31 812.369V805.122H1163.98L1201.46 840.263Z" fill="#00AAFF"/>
<path opacity="0.8" d="M1156.31 840.263L1118.86 875.329H1111.17V868.12L1140.92 840.263L1111.17 812.369V805.122H1118.82L1156.31 840.263Z" fill="#00AAFF"/>
<path opacity="0.6" d="M1111.17 840.263L1073.72 875.329H1066.01V868.12L1095.78 840.263L1066.01 812.369V805.122H1073.67L1111.17 840.263Z" fill="#00AAFF"/>
<path opacity="0.4" d="M1066.01 840.263L1028.56 875.329H1020.87V868.12L1050.63 840.263L1020.87 812.369V805.122H1028.53L1066.01 840.263Z" fill="#00AAFF"/>
<path opacity="0.2" d="M1020.87 840.263L983.414 875.329H975.723V868.12L1005.49 840.263L975.723 812.369V805.122H983.384L1020.87 840.263Z" fill="#00AAFF"/>
<path opacity="0.02" d="M975.723 840.263L938.269 875.329H930.578V868.12L960.331 840.263L930.578 812.369V805.122H938.229L975.723 840.263Z" fill="#00AAFF"/>
<path d="M1427.2 840.263L1389.74 875.329H1382.05V868.12L1411.81 840.263L1382.05 812.369V805.122H1389.71L1427.2 840.263Z" fill="#00AAFF"/>
<path opacity="0.8" d="M1382.05 840.263L1344.6 875.329H1336.91V868.12L1366.66 840.263L1336.91 812.369V805.122H1344.56L1382.05 840.263Z" fill="#00AAFF"/>
<path opacity="0.6" d="M1336.91 840.263L1299.45 875.329H1291.76V868.12L1321.51 840.263L1291.76 812.369V805.122H1299.41L1336.91 840.263Z" fill="#00AAFF"/>
<path opacity="0.4" d="M1291.76 840.263L1254.31 875.329H1246.6V868.12L1276.37 840.263L1246.6 812.369V805.122H1254.27L1291.76 840.263Z" fill="#00AAFF"/>
<path opacity="0.2" d="M1246.61 840.263L1209.15 875.329H1201.46V868.12L1231.22 840.263L1201.46 812.369V805.122H1209.12L1246.61 840.263Z" fill="#00AAFF"/>
<path opacity="0.02" d="M1201.46 840.263L1164.01 875.329H1156.31V868.12L1186.08 840.263L1156.31 812.369V805.122H1163.98L1201.46 840.263Z" fill="#00AAFF"/>
<path d="M1652.94 840.263L1615.49 875.329H1607.79V868.12L1637.55 840.263L1607.79 812.369V805.122H1615.45L1652.94 840.263Z" fill="#00AAFF"/>
<path opacity="0.8" d="M1607.79 840.263L1570.33 875.329H1562.64V868.12L1592.41 840.263L1562.64 812.369V805.122H1570.3L1607.79 840.263Z" fill="#00AAFF"/>
<path opacity="0.6" d="M1562.64 840.263L1525.19 875.329H1517.5V868.12L1547.25 840.263L1517.5 812.369V805.122H1525.15L1562.64 840.263Z" fill="#00AAFF"/>
<path opacity="0.4" d="M1517.5 840.263L1480.04 875.329H1472.35V868.12L1502.1 840.263L1472.35 812.369V805.122H1480L1517.5 840.263Z" fill="#00AAFF"/>
<path opacity="0.2" d="M1472.35 840.263L1434.9 875.329H1427.2V868.12L1456.96 840.263L1427.2 812.369V805.122H1434.86L1472.35 840.263Z" fill="#00AAFF"/>
<path opacity="0.02" d="M1427.2 840.263L1389.74 875.329H1382.05V868.12L1411.81 840.263L1382.05 812.369V805.122H1389.71L1427.2 840.263Z" fill="#00AAFF"/>
<path d="M1878.68 840.263L1841.23 875.329H1833.52V868.12L1863.29 840.263L1833.52 812.369V805.122H1841.19L1878.68 840.263Z" fill="#00AAFF"/>
<path opacity="0.8" d="M1833.52 840.263L1796.08 875.329H1788.38V868.12L1818.14 840.263L1788.38 812.369V805.122H1796.04L1833.52 840.263Z" fill="#00AAFF"/>
<path opacity="0.6" d="M1788.38 840.263L1750.93 875.329H1743.23V868.12L1773 840.263L1743.23 812.369V805.122H1750.89L1788.38 840.263Z" fill="#00AAFF"/>
<path opacity="0.4" d="M1743.23 840.263L1705.78 875.329H1698.09V868.12L1727.84 840.263L1698.09 812.369V805.122H1705.74L1743.23 840.263Z" fill="#00AAFF"/>
<path opacity="0.2" d="M1698.09 840.263L1660.63 875.329H1652.94V868.12L1682.7 840.263L1652.94 812.369V805.122H1660.59L1698.09 840.263Z" fill="#00AAFF"/>
<path opacity="0.02" d="M1652.94 840.263L1615.49 875.329H1607.79V868.12L1637.55 840.263L1607.79 812.369V805.122H1615.45L1652.94 840.263Z" fill="#00AAFF"/>
<path d="M208.212 926.262L170.758 961.336H163.057V954.118L192.82 926.262L163.057 898.376V891.13H170.718L208.212 926.262Z" fill="#00AAFF"/>
<path opacity="0.8" d="M163.057 926.262L125.613 961.336H117.911V954.118L147.674 926.262L117.911 898.376V891.13H125.572L163.057 926.262Z" fill="#00AAFF"/>
<path opacity="0.6" d="M117.911 926.262L80.4572 961.336H72.766V954.118L102.529 926.262L72.766 898.376V891.13H80.4269L117.911 926.262Z" fill="#00AAFF"/>
<path opacity="0.4" d="M72.766 926.262L35.3119 961.336H27.6207V954.118L57.3735 926.262L27.6207 898.376V891.13H35.2714L72.766 926.262Z" fill="#00AAFF"/>
<path opacity="0.2" d="M27.6207 926.262L-9.83339 961.336H-17.5246V954.118L12.2282 926.262L-17.5246 898.376V891.13H-9.87387L27.6207 926.262Z" fill="#00AAFF"/>
<path d="M433.949 926.262L396.495 961.336H388.804V954.118L418.556 926.262L388.804 898.376V891.13H396.454L433.949 926.262Z" fill="#00AAFF"/>
<path opacity="0.8" d="M388.803 926.262L351.349 961.336H343.648V954.118L373.411 926.262L343.648 898.376V891.13H351.309L388.803 926.262Z" fill="#00AAFF"/>
<path opacity="0.6" d="M343.648 926.262L306.194 961.336H298.503V954.118L328.266 926.262L298.503 898.376V891.13H306.164L343.648 926.262Z" fill="#00AAFF"/>
<path opacity="0.4" d="M298.503 926.262L261.049 961.336H253.357V954.118L283.12 926.262L253.357 898.376V891.13H261.018L298.503 926.262Z" fill="#00AAFF"/>
<path opacity="0.2" d="M253.357 926.262L215.903 961.336H208.212V954.118L237.965 926.262L208.212 898.376V891.13H215.863L253.357 926.262Z" fill="#00AAFF"/>
<path opacity="0.02" d="M208.212 926.262L170.758 961.336H163.057V954.118L192.82 926.262L163.057 898.377V891.13H170.718L208.212 926.262Z" fill="#00AAFF"/>
<path d="M659.686 926.262L622.231 961.336H614.54V954.118L644.303 926.262L614.54 898.376V891.13H622.201L659.686 926.262Z" fill="#00AAFF"/>
<path opacity="0.8" d="M614.54 926.262L577.086 961.336H569.395V954.118L599.148 926.262L569.395 898.376V891.13H577.046L614.54 926.262Z" fill="#00AAFF"/>
<path opacity="0.6" d="M569.395 926.262L531.941 961.336H524.239V954.118L554.002 926.262L524.239 898.376V891.13H531.9L569.395 926.262Z" fill="#00AAFF"/>
<path opacity="0.4" d="M524.239 926.262L486.785 961.336H479.094V954.118L508.857 926.262L479.094 898.376V891.13H486.755L524.239 926.262Z" fill="#00AAFF"/>
<path opacity="0.2" d="M479.094 926.262L441.64 961.336H433.949V954.118L463.712 926.262L433.949 898.376V891.13H441.61L479.094 926.262Z" fill="#00AAFF"/>
<path opacity="0.02" d="M433.949 926.262L396.495 961.336H388.803V954.118L418.556 926.262L388.803 898.377V891.13H396.454L433.949 926.262Z" fill="#00AAFF"/>
<path d="M885.422 926.262L847.968 961.336H840.277V954.118L870.04 926.262L840.277 898.376V891.13H847.938L885.422 926.262Z" fill="#00AAFF"/>
<path opacity="0.8" d="M840.277 926.262L802.823 961.336H795.132V954.118L824.895 926.262L795.132 898.376V891.13H802.792L840.277 926.262Z" fill="#00AAFF"/>
<path opacity="0.6" d="M795.132 926.262L757.678 961.336H749.986V954.118L779.739 926.262L749.986 898.376V891.13H757.637L795.132 926.262Z" fill="#00AAFF"/>
<path opacity="0.4" d="M749.986 926.262L712.532 961.336H704.831V954.118L734.594 926.262L704.831 898.376V891.13H712.492L749.986 926.262Z" fill="#00AAFF"/>
<path opacity="0.2" d="M704.831 926.262L667.377 961.336H659.686V954.118L689.448 926.262L659.686 898.376V891.13H667.346L704.831 926.262Z" fill="#00AAFF"/>
<path opacity="0.02" d="M659.686 926.262L622.231 961.336H614.54V954.118L644.303 926.262L614.54 898.377V891.13H622.201L659.686 926.262Z" fill="#00AAFF"/>
<path d="M1111.17 926.262L1073.71 961.336H1066.01V954.118L1095.78 926.262L1066.01 898.376V891.13H1073.67L1111.17 926.262Z" fill="#00AAFF"/>
<path opacity="0.8" d="M1066.01 926.262L1028.56 961.336H1020.87V954.118L1050.63 926.262L1020.87 898.376V891.13H1028.53L1066.01 926.262Z" fill="#00AAFF"/>
<path opacity="0.6" d="M1020.87 926.262L983.414 961.336H975.723V954.118L1005.49 926.262L975.723 898.376V891.13H983.384L1020.87 926.262Z" fill="#00AAFF"/>
<path opacity="0.4" d="M975.723 926.262L938.269 961.336H930.578V954.118L960.33 926.262L930.578 898.376V891.13H938.228L975.723 926.262Z" fill="#00AAFF"/>
<path opacity="0.2" d="M930.578 926.262L893.124 961.336H885.422V954.118L915.185 926.262L885.422 898.376V891.13H893.083L930.578 926.262Z" fill="#00AAFF"/>
<path opacity="0.02" d="M885.422 926.262L847.968 961.336H840.277V954.118L870.04 926.262L840.277 898.377V891.13H847.938L885.422 926.262Z" fill="#00AAFF"/>
<path d="M1336.91 926.262L1299.45 961.336H1291.76V954.118L1321.51 926.262L1291.76 898.376V891.13H1299.41L1336.91 926.262Z" fill="#00AAFF"/>
<path opacity="0.8" d="M1291.76 926.262L1254.31 961.336H1246.6V954.118L1276.37 926.262L1246.6 898.376V891.13H1254.27L1291.76 926.262Z" fill="#00AAFF"/>
<path opacity="0.6" d="M1246.61 926.262L1209.15 961.336H1201.46V954.118L1231.22 926.262L1201.46 898.376V891.13H1209.12L1246.61 926.262Z" fill="#00AAFF"/>
<path opacity="0.4" d="M1201.46 926.262L1164.01 961.336H1156.31V954.118L1186.08 926.262L1156.31 898.376V891.13H1163.98L1201.46 926.262Z" fill="#00AAFF"/>
<path opacity="0.2" d="M1156.31 926.262L1118.86 961.336H1111.17V954.118L1140.92 926.262L1111.17 898.376V891.13H1118.82L1156.31 926.262Z" fill="#00AAFF"/>
<path opacity="0.02" d="M1111.17 926.262L1073.71 961.336H1066.01V954.118L1095.78 926.262L1066.01 898.377V891.13H1073.67L1111.17 926.262Z" fill="#00AAFF"/>
<path d="M1562.64 926.262L1525.19 961.336H1517.5V954.118L1547.25 926.262L1517.5 898.376V891.13H1525.15L1562.64 926.262Z" fill="#00AAFF"/>
<path opacity="0.8" d="M1517.5 926.262L1480.04 961.336H1472.35V954.118L1502.1 926.262L1472.35 898.376V891.13H1480L1517.5 926.262Z" fill="#00AAFF"/>
<path opacity="0.6" d="M1472.35 926.262L1434.9 961.336H1427.2V954.118L1456.96 926.262L1427.2 898.376V891.13H1434.86L1472.35 926.262Z" fill="#00AAFF"/>
<path opacity="0.4" d="M1427.2 926.262L1389.74 961.336H1382.05V954.118L1411.81 926.262L1382.05 898.376V891.13H1389.71L1427.2 926.262Z" fill="#00AAFF"/>
<path opacity="0.2" d="M1382.05 926.262L1344.6 961.336H1336.91V954.118L1366.66 926.262L1336.91 898.376V891.13H1344.56L1382.05 926.262Z" fill="#00AAFF"/>
<path opacity="0.02" d="M1336.91 926.262L1299.45 961.336H1291.76V954.118L1321.51 926.262L1291.76 898.377V891.13H1299.41L1336.91 926.262Z" fill="#00AAFF"/>
<path d="M1788.38 926.262L1750.93 961.336H1743.23V954.118L1773 926.262L1743.23 898.376V891.13H1750.89L1788.38 926.262Z" fill="#00AAFF"/>
<path opacity="0.8" d="M1743.23 926.262L1705.78 961.336H1698.09V954.118L1727.84 926.262L1698.09 898.376V891.13H1705.74L1743.23 926.262Z" fill="#00AAFF"/>
<path opacity="0.6" d="M1698.09 926.262L1660.63 961.336H1652.94V954.118L1682.7 926.262L1652.94 898.376V891.13H1660.59L1698.09 926.262Z" fill="#00AAFF"/>
<path opacity="0.4" d="M1652.94 926.262L1615.49 961.336H1607.79V954.118L1637.55 926.262L1607.79 898.376V891.13H1615.45L1652.94 926.262Z" fill="#00AAFF"/>
<path opacity="0.2" d="M1607.79 926.262L1570.33 961.336H1562.64V954.118L1592.41 926.262L1562.64 898.376V891.13H1570.3L1607.79 926.262Z" fill="#00AAFF"/>
<path opacity="0.02" d="M1562.64 926.262L1525.19 961.336H1517.5V954.118L1547.25 926.262L1517.5 898.377V891.13H1525.15L1562.64 926.262Z" fill="#00AAFF"/>
<path d="M298.503 1012.27L261.049 1047.33H253.357V1040.13L283.12 1012.27L253.357 984.375V977.128H261.018L298.503 1012.27Z" fill="#00AAFF"/>
<path opacity="0.8" d="M253.357 1012.27L215.903 1047.33H208.212V1040.13L237.965 1012.27L208.212 984.375V977.128H215.863L253.357 1012.27Z" fill="#00AAFF"/>
<path opacity="0.6" d="M208.212 1012.27L170.758 1047.33H163.057V1040.13L192.82 1012.27L163.057 984.375V977.128H170.718L208.212 1012.27Z" fill="#00AAFF"/>
<path opacity="0.4" d="M163.057 1012.27L125.613 1047.33H117.911V1040.13L147.674 1012.27L117.911 984.375V977.128H125.572L163.057 1012.27Z" fill="#00AAFF"/>
<path opacity="0.2" d="M117.911 1012.27L80.4572 1047.33H72.766V1040.13L102.529 1012.27L72.766 984.375V977.128H80.4269L117.911 1012.27Z" fill="#00AAFF"/>
<path opacity="0.02" d="M72.7661 1012.27L35.3119 1047.33H27.6207V1040.13L57.3735 1012.27L27.6207 984.375V977.128H35.2714L72.7661 1012.27Z" fill="#00AAFF"/>
<path d="M524.239 1012.27L486.785 1047.33H479.094V1040.13L508.857 1012.27L479.094 984.375V977.128H486.755L524.239 1012.27Z" fill="#00AAFF"/>
<path opacity="0.8" d="M479.094 1012.27L441.64 1047.33H433.949V1040.13L463.712 1012.27L433.949 984.375V977.128H441.61L479.094 1012.27Z" fill="#00AAFF"/>
<path opacity="0.6" d="M433.949 1012.27L396.495 1047.33H388.804V1040.13L418.556 1012.27L388.804 984.375V977.128H396.454L433.949 1012.27Z" fill="#00AAFF"/>
<path opacity="0.4" d="M388.804 1012.27L351.349 1047.33H343.648V1040.13L373.411 1012.27L343.648 984.375V977.128H351.309L388.804 1012.27Z" fill="#00AAFF"/>
<path opacity="0.2" d="M343.648 1012.27L306.194 1047.33H298.503V1040.13L328.266 1012.27L298.503 984.375V977.128H306.164L343.648 1012.27Z" fill="#00AAFF"/>
<path opacity="0.02" d="M298.503 1012.27L261.049 1047.33H253.357V1040.13L283.12 1012.27L253.357 984.375V977.128H261.018L298.503 1012.27Z" fill="#00AAFF"/>
<path d="M749.986 1012.27L712.532 1047.33H704.831V1040.13L734.594 1012.27L704.831 984.375V977.128H712.492L749.986 1012.27Z" fill="#00AAFF"/>
<path opacity="0.8" d="M704.831 1012.27L667.377 1047.33H659.686V1040.13L689.448 1012.27L659.686 984.375V977.128H667.346L704.831 1012.27Z" fill="#00AAFF"/>
<path opacity="0.6" d="M659.686 1012.27L622.231 1047.33H614.54V1040.13L644.303 1012.27L614.54 984.375V977.128H622.201L659.686 1012.27Z" fill="#00AAFF"/>
<path opacity="0.4" d="M614.54 1012.27L577.086 1047.33H569.395V1040.13L599.148 1012.27L569.395 984.375V977.128H577.046L614.54 1012.27Z" fill="#00AAFF"/>
<path opacity="0.2" d="M569.395 1012.27L531.941 1047.33H524.239V1040.13L554.002 1012.27L524.239 984.375V977.128H531.9L569.395 1012.27Z" fill="#00AAFF"/>
<path opacity="0.02" d="M524.239 1012.27L486.785 1047.33H479.094V1040.13L508.857 1012.27L479.094 984.375V977.128H486.755L524.239 1012.27Z" fill="#00AAFF"/>
<path d="M975.723 1012.27L938.269 1047.33H930.578V1040.13L960.33 1012.27L930.578 984.375V977.128H938.228L975.723 1012.27Z" fill="#00AAFF"/>
<path opacity="0.8" d="M930.578 1012.27L893.124 1047.33H885.422V1040.13L915.185 1012.27L885.422 984.375V977.128H893.083L930.578 1012.27Z" fill="#00AAFF"/>
<path opacity="0.6" d="M885.422 1012.27L847.968 1047.33H840.277V1040.13L870.04 1012.27L840.277 984.375V977.128H847.938L885.422 1012.27Z" fill="#00AAFF"/>
<path opacity="0.4" d="M840.277 1012.27L802.823 1047.33H795.132V1040.13L824.895 1012.27L795.132 984.375V977.128H802.792L840.277 1012.27Z" fill="#00AAFF"/>
<path opacity="0.2" d="M795.132 1012.27L757.678 1047.33H749.986V1040.13L779.739 1012.27L749.986 984.375V977.128H757.637L795.132 1012.27Z" fill="#00AAFF"/>
<path opacity="0.02" d="M749.986 1012.27L712.532 1047.33H704.831V1040.13L734.594 1012.27L704.831 984.375V977.128H712.492L749.986 1012.27Z" fill="#00AAFF"/>
<path d="M1201.46 1012.27L1164.01 1047.33H1156.31V1040.13L1186.08 1012.27L1156.31 984.375V977.128H1163.98L1201.46 1012.27Z" fill="#00AAFF"/>
<path opacity="0.8" d="M1156.31 1012.27L1118.86 1047.33H1111.17V1040.13L1140.92 1012.27L1111.17 984.375V977.128H1118.82L1156.31 1012.27Z" fill="#00AAFF"/>
<path opacity="0.6" d="M1111.17 1012.27L1073.72 1047.33H1066.01V1040.13L1095.78 1012.27L1066.01 984.375V977.128H1073.67L1111.17 1012.27Z" fill="#00AAFF"/>
<path opacity="0.4" d="M1066.01 1012.27L1028.56 1047.33H1020.87V1040.13L1050.63 1012.27L1020.87 984.375V977.128H1028.53L1066.01 1012.27Z" fill="#00AAFF"/>
<path opacity="0.2" d="M1020.87 1012.27L983.414 1047.33H975.723V1040.13L1005.49 1012.27L975.723 984.375V977.128H983.384L1020.87 1012.27Z" fill="#00AAFF"/>
<path opacity="0.02" d="M975.723 1012.27L938.269 1047.33H930.578V1040.13L960.331 1012.27L930.578 984.375V977.128H938.229L975.723 1012.27Z" fill="#00AAFF"/>
<path d="M1427.2 1012.27L1389.74 1047.33H1382.05V1040.13L1411.81 1012.27L1382.05 984.375V977.128H1389.71L1427.2 1012.27Z" fill="#00AAFF"/>
<path opacity="0.8" d="M1382.05 1012.27L1344.6 1047.33H1336.91V1040.13L1366.66 1012.27L1336.91 984.375V977.128H1344.56L1382.05 1012.27Z" fill="#00AAFF"/>
<path opacity="0.6" d="M1336.91 1012.27L1299.45 1047.33H1291.76V1040.13L1321.51 1012.27L1291.76 984.375V977.128H1299.41L1336.91 1012.27Z" fill="#00AAFF"/>
<path opacity="0.4" d="M1291.76 1012.27L1254.31 1047.33H1246.6V1040.13L1276.37 1012.27L1246.6 984.375V977.128H1254.27L1291.76 1012.27Z" fill="#00AAFF"/>
<path opacity="0.2" d="M1246.61 1012.27L1209.15 1047.33H1201.46V1040.13L1231.22 1012.27L1201.46 984.375V977.128H1209.12L1246.61 1012.27Z" fill="#00AAFF"/>
<path opacity="0.02" d="M1201.46 1012.27L1164.01 1047.33H1156.31V1040.13L1186.08 1012.27L1156.31 984.375V977.128H1163.98L1201.46 1012.27Z" fill="#00AAFF"/>
<path d="M1652.94 1012.27L1615.49 1047.33H1607.79V1040.13L1637.55 1012.27L1607.79 984.375V977.128H1615.45L1652.94 1012.27Z" fill="#00AAFF"/>
<path opacity="0.8" d="M1607.79 1012.27L1570.33 1047.33H1562.64V1040.13L1592.41 1012.27L1562.64 984.375V977.128H1570.3L1607.79 1012.27Z" fill="#00AAFF"/>
<path opacity="0.6" d="M1562.64 1012.27L1525.19 1047.33H1517.5V1040.13L1547.25 1012.27L1517.5 984.375V977.128H1525.15L1562.64 1012.27Z" fill="#00AAFF"/>
<path opacity="0.4" d="M1517.5 1012.27L1480.04 1047.33H1472.35V1040.13L1502.1 1012.27L1472.35 984.375V977.128H1480L1517.5 1012.27Z" fill="#00AAFF"/>
<path opacity="0.2" d="M1472.35 1012.27L1434.9 1047.33H1427.2V1040.13L1456.96 1012.27L1427.2 984.375V977.128H1434.86L1472.35 1012.27Z" fill="#00AAFF"/>
<path opacity="0.02" d="M1427.2 1012.27L1389.74 1047.33H1382.05V1040.13L1411.81 1012.27L1382.05 984.375V977.128H1389.71L1427.2 1012.27Z" fill="#00AAFF"/>
<path d="M1878.68 1012.27L1841.23 1047.33H1833.52V1040.13L1863.29 1012.27L1833.52 984.375V977.128H1841.19L1878.68 1012.27Z" fill="#00AAFF"/>
<path opacity="0.8" d="M1833.52 1012.27L1796.08 1047.33H1788.38V1040.13L1818.14 1012.27L1788.38 984.375V977.128H1796.04L1833.52 1012.27Z" fill="#00AAFF"/>
<path opacity="0.6" d="M1788.38 1012.27L1750.93 1047.33H1743.23V1040.13L1773 1012.27L1743.23 984.375V977.128H1750.89L1788.38 1012.27Z" fill="#00AAFF"/>
<path opacity="0.4" d="M1743.23 1012.27L1705.78 1047.33H1698.09V1040.13L1727.84 1012.27L1698.09 984.375V977.128H1705.74L1743.23 1012.27Z" fill="#00AAFF"/>
<path opacity="0.2" d="M1698.09 1012.27L1660.63 1047.33H1652.94V1040.13L1682.7 1012.27L1652.94 984.375V977.128H1660.59L1698.09 1012.27Z" fill="#00AAFF"/>
<path opacity="0.02" d="M1652.94 1012.27L1615.49 1047.33H1607.79V1040.13L1637.55 1012.27L1607.79 984.375V977.128H1615.45L1652.94 1012.27Z" fill="#00AAFF"/>
</g>
</svg>
