<svg width="35" height="35" viewBox="0 0 35 35" fill="none" xmlns="http://www.w3.org/2000/svg">
<g id="QuestionCircle">
<path id="Vector" d="M17.5 32.8125C13.4389 32.8125 9.54408 31.1992 6.67243 28.3276C3.80078 25.4559 2.1875 21.5611 2.1875 17.5C2.1875 13.4389 3.80078 9.54408 6.67243 6.67243C9.54408 3.80078 13.4389 2.1875 17.5 2.1875C21.5611 2.1875 25.4559 3.80078 28.3276 6.67243C31.1992 9.54408 32.8125 13.4389 32.8125 17.5C32.8125 21.5611 31.1992 25.4559 28.3276 28.3276C25.4559 31.1992 21.5611 32.8125 17.5 32.8125ZM17.5 35C22.1413 35 26.5925 33.1563 29.8744 29.8744C33.1563 26.5925 35 22.1413 35 17.5C35 12.8587 33.1563 8.40752 29.8744 5.12563C26.5925 1.84374 22.1413 0 17.5 0C12.8587 0 8.40752 1.84374 5.12563 5.12563C1.84374 8.40752 0 12.8587 0 17.5C0 22.1413 1.84374 26.5925 5.12563 29.8744C8.40752 33.1563 12.8587 35 17.5 35Z" fill="black"/>
<path id="Vector_2" d="M11.4951 12.6569C11.4921 12.7275 11.5036 12.798 11.5289 12.8641C11.5541 12.9301 11.5926 12.9903 11.642 13.0409C11.6914 13.0915 11.7506 13.1315 11.816 13.1583C11.8814 13.1852 11.9516 13.1984 12.0223 13.1972H13.827C14.1288 13.1972 14.3695 12.95 14.4088 12.6503C14.6057 11.2153 15.5901 10.1697 17.3445 10.1697C18.8451 10.1697 20.2188 10.92 20.2188 12.7247C20.2188 14.1137 19.4007 14.7525 18.1079 15.7238C16.6357 16.7934 15.4698 18.0425 15.5529 20.0703L15.5595 20.545C15.5618 20.6885 15.6204 20.8254 15.7227 20.9261C15.825 21.0267 15.9628 21.0831 16.1063 21.0831H17.8804C18.0254 21.0831 18.1645 21.0255 18.2671 20.9229C18.3697 20.8204 18.4273 20.6813 18.4273 20.5362V20.3066C18.4273 18.7359 19.0245 18.2787 20.6367 17.0559C21.9688 16.0431 23.3579 14.9188 23.3579 12.5584C23.3579 9.25313 20.5667 7.65625 17.5107 7.65625C14.7392 7.65625 11.7029 8.94687 11.4951 12.6569ZM14.901 25.2634C14.901 26.4294 15.8307 27.2913 17.1104 27.2913C18.4426 27.2913 19.3592 26.4294 19.3592 25.2634C19.3592 24.0559 18.4404 23.2072 17.1082 23.2072C15.8307 23.2072 14.901 24.0559 14.901 25.2634Z" fill="black"/>
</g>
</svg>
