<svg width="20" height="20" viewBox="0 0 20 20" fill="none" xmlns="http://www.w3.org/2000/svg">
<rect width="20" height="20" fill="#1E1E1E"/>
<g id="Frame 1" clip-path="url(#clip0_0_1)">
<rect width="1920" height="1080" transform="translate(-907 -26)" fill="white"/>
<g id="pattern 1" opacity="0.08">
<g id="Group">
<path id="Vector" opacity="0.2" d="M23.5777 40.2415L-13.8764 75.3066H-21.5777V68.0982L8.18519 40.2415L-21.5777 12.3468V5.10046H-13.9169L23.5777 40.2415Z" fill="#00AAFF"/>
</g>
</g>
<g id="Navigation">
<path id="Rectangle 13" d="M-182 -26H287.5C287.5 -26 268.283 -19.5 268.283 -9C268.283 -2.54461 268.283 16.384 268.283 30.0089C268.283 38.2931 261.567 45 253.283 45H-146.255C-154.54 45 -161.255 38.2943 -161.255 30.0101C-161.255 16.6047 -161.255 -1.97752 -161.255 -9C-161.255 -20.5 -182 -26 -182 -26Z" fill="#00AAFF"/>
<g id="Group 157">
<rect id="Rectangle 15" x="-140.511" y="-11.8" width="388.049" height="42.6" rx="5" fill="white"/>
<g id="Search">
<g clip-path="url(#clip1_0_1)">
<path id="Vector_2" d="M14.4584 12.929C15.6316 11.2772 16.157 9.22925 15.9296 7.19486C15.7022 5.16048 14.7388 3.2897 13.232 1.9568C11.7253 0.6239 9.78629 -0.0728188 7.80306 0.00603073C5.81983 0.0848803 3.93858 0.933483 2.53568 2.38206C1.13279 3.83065 0.311707 5.77238 0.236709 7.81878C0.16171 9.86519 0.838326 11.8654 2.13119 13.4191C3.42405 14.9729 5.23782 15.9657 7.20962 16.1988C9.18141 16.432 11.1658 15.8884 12.7658 14.6767H12.7646C12.801 14.7267 12.8398 14.7742 12.8834 14.8205L17.5479 19.6335C17.7751 19.868 18.0833 19.9999 18.4047 20C18.7261 20.0001 19.0343 19.8685 19.2617 19.6341C19.489 19.3997 19.6168 19.0817 19.6169 18.7501C19.617 18.4184 19.4895 18.1004 19.2623 17.8658L14.5977 13.0528C14.5544 13.0075 14.5078 12.9657 14.4584 12.9278V12.929ZM14.771 8.12352C14.771 9.02645 14.5986 9.92054 14.2638 10.7547C13.9289 11.5889 13.438 12.3469 12.8193 12.9854C12.2005 13.6239 11.4659 14.1303 10.6574 14.4759C9.84896 14.8214 8.98245 14.9992 8.10737 14.9992C7.23229 14.9992 6.36577 14.8214 5.5573 14.4759C4.74884 14.1303 4.01424 13.6239 3.39547 12.9854C2.77669 12.3469 2.28585 11.5889 1.95097 10.7547C1.6161 9.92054 1.44374 9.02645 1.44374 8.12352C1.44374 6.29997 2.14579 4.55111 3.39547 3.26166C4.64514 1.97222 6.34006 1.24781 8.10737 1.24781C9.87467 1.24781 11.5696 1.97222 12.8193 3.26166C14.0689 4.55111 14.771 6.29997 14.771 8.12352Z" fill="black"/>
</g>
</g>
</g>
</g>
</g>
<defs>
<clipPath id="clip0_0_1">
<rect width="1920" height="1080" fill="white" transform="translate(-907 -26)"/>
</clipPath>
<clipPath id="clip1_0_1">
<rect width="20" height="20" rx="5" fill="white"/>
</clipPath>
</defs>
</svg>
